<svg width="17" height="20" viewBox="0 0 17 20" fill="none" xmlns="http://www.w3.org/2000/svg">
<path fill-rule="evenodd" clip-rule="evenodd" d="M12.0113 0.400024C12.1788 1.53777 11.7157 2.65239 11.1048 3.441C10.4512 4.28688 9.32461 4.94111 8.23309 4.90697C8.03383 3.81768 8.54401 2.69535 9.16477 1.94089C9.84574 1.10823 11.0128 0.469413 12.0113 0.400024ZM15.2902 16.4144C15.853 15.552 16.0632 15.117 16.5 14.1433C13.3229 12.9351 12.8138 8.41824 15.9581 6.68463C14.999 5.4819 13.6513 4.78471 12.3791 4.78471C11.4625 4.78471 10.8344 5.02392 10.2635 5.24139C9.78765 5.42261 9.35149 5.58874 8.821 5.58874C8.24774 5.58874 7.74008 5.40672 7.20852 5.21613C6.62441 5.0067 6.01144 4.78692 5.25082 4.78692C3.82319 4.78692 2.30359 5.65923 1.34016 7.15053C-0.0141189 9.2509 0.216886 13.1994 2.41308 16.5631C3.19805 17.767 4.24688 19.1195 5.61868 19.1316C6.18789 19.1372 6.56666 18.9674 6.97655 18.7835C7.44571 18.5731 7.95562 18.3444 8.83852 18.3397C9.72661 18.3344 10.2285 18.5659 10.6914 18.7794C11.0908 18.9636 11.4612 19.1344 12.0255 19.1283C13.3984 19.1173 14.5053 17.6183 15.2902 16.4144Z" fill="#0B0B0A"/>
</svg>
