<svg width="87" height="26" viewBox="0 0 87 26" fill="none" xmlns="http://www.w3.org/2000/svg">
    <path
        d="M13.6972 0.698063C13.6972 0.312534 13.384 0 12.9978 0C12.6115 0 12.2984 0.312534 12.2984 0.698063V4.71769C12.2984 4.92159 12.0513 5.02371 11.9069 4.87953L9.84845 2.82506C9.57532 2.55245 9.13247 2.55245 8.85934 2.82506C8.5862 3.09767 8.5862 3.53966 8.85934 3.81227L11.8954 6.84245C12.1534 7.09998 12.2984 7.44927 12.2984 7.81347V11.3906C12.2984 11.5668 12.1073 11.6769 11.9544 11.5888L8.84057 9.79454C8.52455 9.61244 8.29395 9.3125 8.19951 8.9607L7.08824 4.8214C6.98827 4.449 6.60475 4.22801 6.23164 4.32779C5.85853 4.42757 5.63711 4.81035 5.73708 5.18274L6.49052 7.9892C6.5434 8.18616 6.33129 8.3486 6.15436 8.24665L2.67647 6.24256C2.34195 6.04979 1.9142 6.16419 1.72106 6.49807C1.52792 6.83194 1.64254 7.25887 1.97706 7.45164L5.45883 9.45796C5.63575 9.55992 5.60086 9.82447 5.40352 9.87725L2.58553 10.6309C2.21242 10.7307 1.991 11.1134 2.09097 11.4858C2.19095 11.8582 2.57446 12.0792 2.94757 11.9794L7.10098 10.8687C7.45345 10.7744 7.82901 10.8238 8.14503 11.0059L11.2572 12.7992C11.4101 12.8873 11.4101 13.1075 11.2572 13.1956L8.13891 14.9925C7.82289 15.1746 7.44734 15.224 7.09486 15.1297L2.94757 14.0206C2.57446 13.9208 2.19095 14.1418 2.09097 14.5142C1.991 14.8866 2.21242 15.2693 2.58553 15.3691L5.3974 16.1211C5.59474 16.1739 5.62964 16.4384 5.45271 16.5404L1.97482 18.5445C1.6403 18.7373 1.52568 19.1642 1.71882 19.4981C1.91196 19.8319 2.33971 19.9463 2.67423 19.7536L6.156 17.7472C6.33293 17.6453 6.54504 17.8077 6.49216 18.0047L5.73708 20.8173C5.63711 21.1897 5.85853 21.5724 6.23164 21.6722C6.60475 21.772 6.98827 21.551 7.08824 21.1786L8.20114 17.0332C8.29559 16.6814 8.52619 16.3815 8.84221 16.1994L11.9544 14.406C12.1073 14.3179 12.2984 14.428 12.2984 14.6042V18.198C12.2984 18.5622 12.1534 18.9115 11.8954 19.169L8.85934 22.1992C8.5862 22.4718 8.5862 22.9138 8.85934 23.1864C9.13247 23.459 9.57532 23.459 9.84845 23.1864L11.9069 21.1319C12.0513 20.9877 12.2984 21.0899 12.2984 21.2938V25.3019C12.2984 25.6875 12.6115 26 12.9978 26C13.384 26 13.6972 25.6875 13.6972 25.3019V21.2893C13.6972 21.0854 13.9442 20.9833 14.0886 21.1274L16.1516 23.1864C16.4247 23.459 16.8675 23.459 17.1407 23.1864C17.4138 22.9138 17.4138 22.4718 17.1407 22.1992L14.1002 19.1645C13.8421 18.907 13.6972 18.5577 13.6972 18.1935V14.6016C13.6972 14.4254 13.8883 14.3153 14.0411 14.4034L17.1479 16.1936C17.4639 16.3757 17.6945 16.6757 17.7889 17.0275L18.9018 21.1729C19.0018 21.5453 19.3853 21.7663 19.7584 21.6665C20.1316 21.5667 20.353 21.1839 20.253 20.8115L19.4979 17.999C19.445 17.802 19.6572 17.6396 19.8341 17.7415L23.3258 19.7536C23.6603 19.9463 24.088 19.8319 24.2812 19.4981C24.4743 19.1642 24.3597 18.7373 24.0252 18.5445L20.5374 16.5347C20.3604 16.4327 20.3953 16.1682 20.5927 16.1154L23.4046 15.3634C23.7777 15.2636 23.9991 14.8809 23.8991 14.5085C23.7991 14.1361 23.4156 13.9151 23.0425 14.0149L18.8952 15.124C18.5427 15.2182 18.1672 15.1689 17.8512 14.9868L14.7428 13.1956C14.5899 13.1075 14.5899 12.8873 14.7428 12.7992L17.845 11.0116C18.1611 10.8295 18.5366 10.7801 18.8891 10.8744L23.0425 11.9851C23.4156 12.0849 23.7991 11.8639 23.8991 11.4915C23.9991 11.1192 23.7777 10.7364 23.4046 10.6366L20.5866 9.88297C20.3892 9.83019 20.3543 9.56564 20.5312 9.46368L24.0229 7.45164C24.3575 7.25887 24.4721 6.83194 24.2789 6.49807C24.0858 6.16419 23.6581 6.04979 23.3235 6.24256L19.8357 8.25236C19.6588 8.35431 19.4467 8.19187 19.4996 7.99492L20.253 5.18846C20.353 4.81607 20.1316 4.4333 19.7584 4.33351C19.3853 4.23373 19.0018 4.45473 18.9018 4.82712L17.7906 8.96642C17.6961 9.31821 17.4655 9.61815 17.1495 9.80025L14.0411 11.5914C13.8883 11.6795 13.6972 11.5694 13.6972 11.3932V7.81794C13.6972 7.45374 13.8421 7.10445 14.1002 6.84692L17.1407 3.81227C17.4138 3.53966 17.4138 3.09767 17.1407 2.82506C16.8675 2.55245 16.4247 2.55245 16.1516 2.82506L14.0886 4.88399C13.9442 5.02818 13.6972 4.92606 13.6972 4.72216V0.698063Z"
        fill="#95A4FC"
    />
    <path d="M54 19V12C54 10.3431 52.6569 9 51 9C49.3431 9 48 10.3431 48 12V19H46V12C46 9.23858 48.2386 7 51 7C53.7614 7 56 9.23858 56 12V19H54Z" fill="#ffffff" />
    <path
        fill-rule="evenodd"
        clip-rule="evenodd"
        d="M65 17C67.2091 17 69 15.2091 69 13C69 10.7909 67.2091 9 65 9C62.7909 9 61 10.7909 61 13C61 15.2091 62.7909 17 65 17ZM65 19C68.3137 19 71 16.3137 71 13C71 9.68629 68.3137 7 65 7C61.6863 7 59 9.68629 59 13C59 16.3137 61.6863 19 65 19Z"
        fill="#95A4FC"
    />
    <path
        d="M73 7L74.8849 17.3516C75.2759 19.4988 78.143 19.5684 78.6258 17.4424L79.7431 11.5418C79.7842 11.3251 80.0747 11.3295 80.11 11.5474L81.0502 17.3547C81.4675 19.4986 84.339 19.5261 84.7927 17.3906L87 7H85.0588L83.1166 16.9604C83.0748 17.1745 82.7885 17.1717 82.7505 16.9568L80.9863 7H79.0323L76.9663 16.9897C76.9221 17.2031 76.6362 17.1968 76.6003 16.9817L74.932 7H73Z"
        fill="#ffffff"
    />
    <path
        d="M38.396 19C39.8006 19 40.9191 18.7073 41.7514 18.0976C42.5838 17.4878 43 16.6585 43 15.561C43 14.6098 42.6619 13.9024 42.0116 13.3902C41.3353 12.878 40.4509 12.439 39.3324 12.0488C38.578 11.7561 37.9277 11.4878 37.4335 11.2439C36.9393 11 36.6792 10.6341 36.6792 10.1463C36.6792 9.70732 36.8613 9.36585 37.2514 9.14634C37.6416 8.92683 38.1619 8.82927 38.8121 8.82927C39.3064 8.82927 39.8006 8.90244 40.2688 9.04878C40.711 9.19512 41.1792 9.39024 41.6734 9.65854L42.4798 8C41.9335 7.65854 41.3353 7.41463 40.711 7.2439C40.0867 7.07317 39.4624 7 38.8121 7C37.5116 7 36.4711 7.26829 35.6647 7.82927C34.8584 8.39024 34.4682 9.17073 34.4942 10.1707C34.5202 11.0976 34.8584 11.8049 35.5347 12.2927C36.185 12.7805 37.0694 13.2195 38.1879 13.6098C38.9422 13.878 39.5665 14.1463 40.0607 14.4146C40.5549 14.6829 40.789 15.0976 40.789 15.6341C40.789 16.122 40.5809 16.4878 40.1647 16.7561C39.7225 17.0244 39.1243 17.1463 38.3179 17.1463C37.7717 17.1463 37.1994 17.0488 36.6272 16.878C36.0549 16.7073 35.4566 16.439 34.8064 16.0244L34 17.7561C34.6503 18.1463 35.3526 18.439 36.0549 18.6585C36.7572 18.878 37.5376 19 38.396 19Z"
        fill="#ffffff"
    />
</svg>