<?xml version="1.0" encoding="UTF-8"?>
<!DOCTYPE svg PUBLIC "-//W3C//DTD SVG 1.1//EN" "http://www.w3.org/Graphics/SVG/1.1/DTD/svg11.dtd">
<svg xmlns="http://www.w3.org/2000/svg" version="1.1" width="1670px" height="1759px" style="shape-rendering:geometricPrecision; text-rendering:geometricPrecision; image-rendering:optimizeQuality; fill-rule:evenodd; clip-rule:evenodd" xmlns:xlink="http://www.w3.org/1999/xlink">
<g><path style="opacity:0.998" fill="#000000" d="M 521.5,-0.5 C 544.167,-0.5 566.833,-0.5 589.5,-0.5C 623.375,2.55382 657.375,5.88716 691.5,9.5C 691.5,10.8333 691.5,12.1667 691.5,13.5C 757.947,26.7971 818.614,52.9638 873.5,92C 899.715,111.947 925.382,132.613 950.5,154C 1005.64,204.472 1060.81,254.972 1116,305.5C 1113.89,211.164 1111.39,116.831 1108.5,22.5C 1248.5,21.2931 1388.5,19.9598 1528.5,18.5C 1528.5,20.1667 1528.5,21.8333 1528.5,23.5C 1529.83,23.5 1531.17,23.5 1532.5,23.5C 1532.5,24.8333 1532.5,26.1667 1532.5,27.5C 1534.17,27.5 1535.83,27.5 1537.5,27.5C 1537.5,28.8333 1537.5,30.1667 1537.5,31.5C 1539.29,31.2148 1540.95,31.5481 1542.5,32.5C 1542.17,33.1667 1541.83,33.8333 1541.5,34.5C 1543.05,35.4519 1544.71,35.7852 1546.5,35.5C 1546.5,36.8333 1546.5,38.1667 1546.5,39.5C 1548.17,39.5 1549.83,39.5 1551.5,39.5C 1551.67,40.8221 1551.34,41.9887 1550.5,43C 1552.13,43.4935 1553.8,43.6602 1555.5,43.5C 1555.5,45.1667 1555.5,46.8333 1555.5,48.5C 1557.17,48.5 1558.83,48.5 1560.5,48.5C 1560.67,49.8221 1560.34,50.9887 1559.5,52C 1561.13,52.4935 1562.8,52.6602 1564.5,52.5C 1564.5,53.8333 1564.5,55.1667 1564.5,56.5C 1566.17,56.5 1567.83,56.5 1569.5,56.5C 1569.67,57.8221 1569.34,58.9887 1568.5,60C 1570.13,60.4935 1571.8,60.6602 1573.5,60.5C 1573.5,61.8333 1573.5,63.1667 1573.5,64.5C 1575.17,64.5 1576.83,64.5 1578.5,64.5C 1578.71,66.1439 1578.38,67.6439 1577.5,69C 1579.5,69.3333 1581.5,69.6667 1583.5,70C 1582.66,71.0113 1582.33,72.1779 1582.5,73.5C 1584.17,73.5 1585.83,73.5 1587.5,73.5C 1587.5,74.8333 1587.5,76.1667 1587.5,77.5C 1589.2,77.3398 1590.87,77.5065 1592.5,78C 1591.66,79.0113 1591.33,80.1779 1591.5,81.5C 1593.17,81.5 1594.83,81.5 1596.5,81.5C 1596.5,82.8333 1596.5,84.1667 1596.5,85.5C 1598.29,85.2148 1599.95,85.5481 1601.5,86.5C 1600.75,87.7362 1600.42,89.0695 1600.5,90.5C 1602.17,90.5 1603.83,90.5 1605.5,90.5C 1605.5,91.8333 1605.5,93.1667 1605.5,94.5C 1607.29,94.2148 1608.95,94.5481 1610.5,95.5C 1610.17,96.1667 1609.83,96.8333 1609.5,97.5C 1611.05,98.4519 1612.71,98.7852 1614.5,98.5C 1614.5,99.8333 1614.5,101.167 1614.5,102.5C 1616.17,102.5 1617.83,102.5 1619.5,102.5C 1619.5,103.833 1619.5,105.167 1619.5,106.5C 1620.83,106.5 1622.17,106.5 1623.5,106.5C 1623.21,108.288 1623.55,109.955 1624.5,111.5C 1625.74,110.754 1627.07,110.421 1628.5,110.5C 1628.5,112.167 1628.5,113.833 1628.5,115.5C 1629.83,115.5 1631.17,115.5 1632.5,115.5C 1632.5,116.833 1632.5,118.167 1632.5,119.5C 1634.17,119.5 1635.83,119.5 1637.5,119.5C 1637.5,120.833 1637.5,122.167 1637.5,123.5C 1639.29,123.215 1640.95,123.548 1642.5,124.5C 1642.17,125.167 1641.83,125.833 1641.5,126.5C 1643.05,127.452 1644.71,127.785 1646.5,127.5C 1646.5,128.833 1646.5,130.167 1646.5,131.5C 1648.17,131.5 1649.83,131.5 1651.5,131.5C 1651.67,132.822 1651.34,133.989 1650.5,135C 1652.13,135.494 1653.8,135.66 1655.5,135.5C 1655.5,137.167 1655.5,138.833 1655.5,140.5C 1657.17,140.5 1658.83,140.5 1660.5,140.5C 1660.67,141.822 1660.34,142.989 1659.5,144C 1661.13,144.494 1662.8,144.66 1664.5,144.5C 1664.5,145.833 1664.5,147.167 1664.5,148.5C 1666.17,148.5 1667.83,148.5 1669.5,148.5C 1669.5,149.833 1669.5,151.167 1669.5,152.5C 1633.61,413.968 1598.11,675.634 1563,937.5C 1562.44,938.022 1561.77,938.355 1561,938.5C 1557.48,937.873 1553.98,937.207 1550.5,936.5C 1550.17,937.667 1549.83,938.833 1549.5,940C 1560.42,1033.81 1571.09,1127.65 1581.5,1221.5C 1531.5,1221.33 1481.5,1221.5 1431.5,1222C 1461.27,1248.43 1490.44,1275.6 1519,1303.5C 1538.64,1329.13 1550.3,1358.13 1554,1390.5C 1555,1399.47 1555.67,1408.47 1556,1417.5C 1556.5,1481.17 1556.67,1544.83 1556.5,1608.5C 1419.5,1608.5 1282.5,1608.5 1145.5,1608.5C 1143.73,1658.5 1142.07,1708.5 1140.5,1758.5C 1139.83,1758.5 1139.17,1758.5 1138.5,1758.5C 1073.07,1710.25 1007.73,1661.75 942.5,1613C 941.127,1612.13 939.627,1611.63 938,1611.5C 895.156,1619.17 855.656,1611 819.5,1587C 805.37,1575.21 791.537,1563.04 778,1550.5C 737.812,1592.86 688.312,1614.19 629.5,1614.5C 582.572,1615.14 540.739,1601.14 504,1572.5C 503.819,1581.41 503.319,1590.24 502.5,1599C 484.342,1604.12 466.009,1608.46 447.5,1612C 416.124,1617.05 385.458,1614.39 355.5,1604C 343.668,1598.59 332.668,1591.92 322.5,1584C 270.366,1536.2 218.532,1488.03 167,1439.5C 144.816,1409.29 133.149,1375.29 132,1337.5C 130.108,1336.38 129.275,1334.72 129.5,1332.5C 128.167,1332.5 126.833,1332.5 125.5,1332.5C 125.5,1331.17 125.5,1329.83 125.5,1328.5C 123.833,1328.5 122.167,1328.5 120.5,1328.5C 120.5,1327.17 120.5,1325.83 120.5,1324.5C 119.167,1324.5 117.833,1324.5 116.5,1324.5C 116.5,1323.17 116.5,1321.83 116.5,1320.5C 114.833,1320.5 113.167,1320.5 111.5,1320.5C 111.5,1318.83 111.5,1317.17 111.5,1315.5C 109.833,1315.5 108.167,1315.5 106.5,1315.5C 106.5,1314.17 106.5,1312.83 106.5,1311.5C 105.167,1311.5 103.833,1311.5 102.5,1311.5C 102.5,1252.5 102.5,1193.5 102.5,1134.5C 112.167,1134.5 121.833,1134.5 131.5,1134.5C 131.5,1122.17 131.5,1109.83 131.5,1097.5C 182.005,1083.11 232.338,1068.11 282.5,1052.5C 238.209,1011.38 194.042,970.045 150,928.5C 59.2713,831.573 9.1046,716.573 -0.5,583.5C -0.5,560.833 -0.5,538.167 -0.5,515.5C 13.4836,348.519 86.1503,213.686 217.5,111C 307.646,43.89 408.979,6.72338 521.5,-0.5 Z M 809.5,503.5 C 756.762,487.977 704.095,472.144 651.5,456C 696.623,444.878 741.29,446.545 785.5,461C 794.41,474.654 802.41,488.821 809.5,503.5 Z M 627.5,462.5 C 614.66,561.552 600.994,660.719 586.5,760C 587.905,761.269 589.571,761.769 591.5,761.5C 591.5,762.833 591.5,764.167 591.5,765.5C 593.167,765.5 594.833,765.5 596.5,765.5C 596.67,766.822 596.337,767.989 595.5,769C 597.134,769.494 598.801,769.66 600.5,769.5C 600.5,770.833 600.5,772.167 600.5,773.5C 603.95,772.756 605.616,774.09 605.5,777.5C 566.703,784.016 528.703,780.85 491.5,768C 470.361,709.279 470.194,650.446 491,591.5C 517.272,528.058 562.772,485.058 627.5,462.5 Z M 1120.5,481.5 C 1121.32,484.977 1121.82,488.644 1122,492.5C 1123.44,535.166 1124.44,577.832 1125,620.5C 1122.44,618.237 1119.94,615.904 1117.5,613.5C 1116.61,612.675 1116.28,611.675 1116.5,610.5C 1115.07,610.579 1113.74,610.246 1112.5,609.5C 1110.22,607.202 1108.22,604.702 1106.5,602C 1103.55,601.888 1102.22,600.388 1102.5,597.5C 1099.05,598.244 1097.38,596.91 1097.5,593.5C 1094.5,593.833 1093.17,592.5 1093.5,589.5C 1072.23,583.768 1051.23,577.268 1030.5,570C 1060.7,540.633 1090.7,511.133 1120.5,481.5 Z"/></g>
<g><path style="opacity:1" fill="#c177fe" d="M 1069.5,1037.5 C 995.998,1037.83 922.665,1037.5 849.5,1036.5C 856.504,1010.81 863.338,985.145 870,959.5C 751.296,1035.91 621.796,1064.08 481.5,1044C 364.682,1026.84 265.516,976.012 184,891.5C 73.2739,768.259 30.9406,624.259 57,459.5C 87.8826,309.801 168.716,195.967 299.5,118C 391.54,65.2561 490.54,43.2561 596.5,52C 651.532,55.4252 704.865,66.7586 756.5,86C 786.994,98.5753 815.661,114.242 842.5,133C 879.027,159.51 913.194,189.01 945,221.5C 959.758,238.254 973.758,255.588 987,273.5C 987.163,275.387 986.329,276.887 984.5,278C 932.625,328.876 880.459,379.376 828,429.5C 797.621,375.788 755.788,333.288 702.5,302C 632.639,266.266 559.972,259.266 484.5,281C 372.42,315.742 306.587,390.908 287,506.5C 277.408,574.697 289.408,638.697 323,698.5C 360.322,757.455 412.489,797.288 479.5,818C 511.735,828.318 544.735,832.651 578.5,831C 619.192,829.395 658.525,821.395 696.5,807C 732.083,791.211 763.083,769.045 789.5,740.5C 741.197,732.98 692.864,725.647 644.5,718.5C 653.516,650.72 663.183,583.054 673.5,515.5C 797.099,553.151 920.765,590.651 1044.5,628C 1052.99,764.437 1061.32,900.937 1069.5,1037.5 Z"/></g>
<g><path style="opacity:1" fill="#c177fe" d="M 1362.5,70.5 C 1398.51,70.1668 1434.51,70.5001 1470.5,71.5C 1439.62,298.129 1408.95,524.795 1378.5,751.5C 1312.12,743.873 1245.78,735.873 1179.5,727.5C 1173.49,509.154 1167.15,290.821 1160.5,72.5C 1228,72.1783 1295.33,71.5117 1362.5,70.5 Z"/></g>
<g><path style="opacity:1" fill="#c177fe" d="M 1348.5,845.5 C 1352.83,845.5 1357.17,845.5 1361.5,845.5C 1369.36,910.766 1376.69,976.099 1383.5,1041.5C 1312.83,1041.5 1242.17,1041.5 1171.5,1041.5C 1174.07,981.52 1176.07,921.52 1177.5,861.5C 1234.68,856.603 1291.68,851.269 1348.5,845.5 Z"/></g>
<g><path style="opacity:1" fill="#8355a8" d="M 849.5,1036.5 C 922.665,1037.5 995.998,1037.83 1069.5,1037.5C 995.999,1038.83 922.332,1038.83 848.5,1037.5C 848.624,1036.89 848.957,1036.56 849.5,1036.5 Z"/></g>
<g><path style="opacity:1" fill="#fefefe" d="M 262.5,1112.5 C 263.167,1136.5 263.833,1160.5 264.5,1184.5C 280.658,1185.5 296.991,1185.83 313.5,1185.5C 313.5,1210.5 313.5,1235.5 313.5,1260.5C 296.833,1260.5 280.167,1260.5 263.5,1260.5C 263.169,1282.01 263.503,1303.34 264.5,1324.5C 265.745,1343.41 275.745,1353.74 294.5,1355.5C 300.152,1354.86 305.818,1354.53 311.5,1354.5C 311.5,1379.83 311.5,1405.17 311.5,1430.5C 292.934,1433.26 274.268,1434.1 255.5,1433C 251.792,1432.16 248.125,1431.33 244.5,1430.5C 242.478,1428.31 239.811,1427.31 236.5,1427.5C 214.817,1418.98 199.984,1403.65 192,1381.5C 188.546,1370.68 185.879,1359.68 184,1348.5C 182.637,1319.19 182.137,1289.85 182.5,1260.5C 172.833,1260.5 163.167,1260.5 153.5,1260.5C 153.5,1235.5 153.5,1210.5 153.5,1185.5C 163.348,1185.83 173.014,1185.49 182.5,1184.5C 182.5,1168.17 182.5,1151.83 182.5,1135.5C 209.115,1127.58 235.782,1119.91 262.5,1112.5 Z"/></g>
<g><path style="opacity:1" fill="#c6c6c5" d="M 262.5,1112.5 C 262.56,1111.96 262.893,1111.62 263.5,1111.5C 264.5,1135.82 264.833,1160.16 264.5,1184.5C 263.833,1160.5 263.167,1136.5 262.5,1112.5 Z"/></g>
<g><path style="opacity:1" fill="#fdfdfd" d="M 473.5,1178.5 C 512.934,1175.82 548.268,1186.32 579.5,1210C 610.784,1239.01 623.784,1274.84 618.5,1317.5C 557.496,1317.17 496.496,1317.5 435.5,1318.5C 443.639,1349.93 463.973,1363.43 496.5,1359C 511.895,1357.42 523.895,1350.26 532.5,1337.5C 561.159,1336.5 589.826,1336.17 618.5,1336.5C 619.139,1344.38 618.306,1352.05 616,1359.5C 602.416,1388.23 580.916,1408.73 551.5,1421C 515.923,1434.86 479.59,1437.19 442.5,1428C 393.72,1412.89 364.22,1380.39 354,1330.5C 347.464,1292.85 355.13,1258.51 377,1227.5C 402.452,1198.02 434.619,1181.69 473.5,1178.5 Z"/></g>
<g><path style="opacity:1" fill="#fefefe" d="M 839.5,1207.5 C 840.492,1200.35 840.825,1193.02 840.5,1185.5C 867.5,1185.5 894.5,1185.5 921.5,1185.5C 921.5,1266.17 921.5,1346.83 921.5,1427.5C 894.167,1427.5 866.833,1427.5 839.5,1427.5C 839.666,1420.16 839.5,1412.83 839,1405.5C 811.032,1430.62 778.532,1439.12 741.5,1431C 710.208,1422.37 687.375,1403.54 673,1374.5C 654.989,1331.55 653.989,1288.21 670,1244.5C 694.112,1194.02 733.945,1172.86 789.5,1181C 808.635,1185.4 825.302,1194.23 839.5,1207.5 Z"/></g>
<g><path style="opacity:1" fill="#fefefe" d="M 1364.5,1427.5 C 1337.5,1427.5 1310.5,1427.5 1283.5,1427.5C 1283.83,1382 1283.5,1336.66 1282.5,1291.5C 1282.05,1274.41 1274.05,1262.58 1258.5,1256C 1235.64,1254.84 1222.14,1265.67 1218,1288.5C 1217.5,1334.83 1217.33,1381.17 1217.5,1427.5C 1190.5,1427.5 1163.5,1427.5 1136.5,1427.5C 1136.83,1381.66 1136.5,1336 1135.5,1290.5C 1134.67,1277.33 1129,1266.83 1118.5,1259C 1097.56,1251.88 1082.39,1258.38 1073,1278.5C 1072.33,1281.17 1071.67,1283.83 1071,1286.5C 1070.5,1333.5 1070.33,1380.5 1070.5,1427.5C 1043.17,1427.5 1015.83,1427.5 988.5,1427.5C 988.5,1346.5 988.5,1265.5 988.5,1184.5C 1015.83,1184.5 1043.17,1184.5 1070.5,1184.5C 1070.33,1192.17 1070.5,1199.84 1071,1207.5C 1097.29,1178.72 1128.79,1171.22 1165.5,1185C 1180.46,1191.96 1192.29,1202.46 1201,1216.5C 1230.43,1179.93 1267.26,1169.77 1311.5,1186C 1334.59,1197.09 1349.75,1214.92 1357,1239.5C 1359.64,1248.35 1361.64,1257.35 1363,1266.5C 1364.46,1320.14 1364.96,1373.81 1364.5,1427.5 Z"/></g>
<g><path style="opacity:1" fill="#dddddd" d="M 921.5,1185.5 C 894.5,1185.5 867.5,1185.5 840.5,1185.5C 840.825,1193.02 840.492,1200.35 839.5,1207.5C 839.5,1199.83 839.5,1192.17 839.5,1184.5C 867.005,1184.17 894.338,1184.5 921.5,1185.5 Z"/></g>
<g><path style="opacity:1" fill="#61615f" d="M 182.5,1184.5 C 173.014,1185.49 163.348,1185.83 153.5,1185.5C 153.5,1210.5 153.5,1235.5 153.5,1260.5C 152.502,1235.34 152.169,1210.01 152.5,1184.5C 162.5,1184.5 172.5,1184.5 182.5,1184.5 Z"/></g>
<g><path style="opacity:1" fill="#646462" d="M 264.5,1184.5 C 281.167,1184.5 297.833,1184.5 314.5,1184.5C 314.831,1210.34 314.498,1236.01 313.5,1261.5C 313.5,1261.17 313.5,1260.83 313.5,1260.5C 313.5,1235.5 313.5,1210.5 313.5,1185.5C 296.991,1185.83 280.658,1185.5 264.5,1184.5 Z"/></g>
<g><path style="opacity:1" fill="#1e1e1c" d="M 478.5,1246.5 C 498.313,1244.56 514.813,1250.9 528,1265.5C 529.626,1267.92 531.126,1270.42 532.5,1273C 501.828,1273.83 471.161,1273.67 440.5,1272.5C 449.167,1257.84 461.834,1249.18 478.5,1246.5 Z"/></g>
<g><path style="opacity:1" fill="#1d1d1b" d="M 783.5,1255.5 C 825.332,1254.5 844.832,1274.83 842,1316.5C 837.498,1339.5 823.665,1352.66 800.5,1356C 771.979,1359.77 752.813,1348.27 743,1321.5C 739.078,1303.79 742.078,1287.45 752,1272.5C 760.803,1263.52 771.303,1257.85 783.5,1255.5 Z"/></g>
<g><path style="opacity:1" fill="#868685" d="M 313.5,1260.5 C 313.5,1260.83 313.5,1261.17 313.5,1261.5C 297.167,1261.5 280.833,1261.5 264.5,1261.5C 264.5,1282.5 264.5,1303.5 264.5,1324.5C 263.503,1303.34 263.169,1282.01 263.5,1260.5C 280.167,1260.5 296.833,1260.5 313.5,1260.5 Z"/></g>
<g><path style="opacity:1" fill="#60605f" d="M 1135.5,1290.5 C 1136.5,1336 1136.83,1381.66 1136.5,1427.5C 1163.5,1427.5 1190.5,1427.5 1217.5,1427.5C 1190.34,1428.5 1163.01,1428.83 1135.5,1428.5C 1135.5,1382.5 1135.5,1336.5 1135.5,1290.5 Z"/></g>
<g><path style="opacity:1" fill="#6a6a69" d="M 1282.5,1291.5 C 1283.5,1336.66 1283.83,1382 1283.5,1427.5C 1310.5,1427.5 1337.5,1427.5 1364.5,1427.5C 1337.34,1428.5 1310.01,1428.83 1282.5,1428.5C 1282.5,1382.83 1282.5,1337.17 1282.5,1291.5 Z"/></g>
<g><path style="opacity:1" fill="#555553" d="M 236.5,1427.5 C 239.811,1427.31 242.478,1428.31 244.5,1430.5C 241.658,1430.77 238.992,1429.77 236.5,1427.5 Z"/></g>
</svg>
