<svg width="32" height="32" viewBox="0 0 32 32" fill="none" xmlns="http://www.w3.org/2000/svg">
<path d="M16.0006 6.18677C19.0051 6.18677 21.0318 7.48457 22.1874 8.56903L26.703 4.16007C23.9296 1.58225 20.3207 0 16.0006 0C9.74272 0 4.33819 3.59117 1.70703 8.81792L6.88045 12.8358C8.17825 8.97793 11.7694 6.18677 16.0006 6.18677Z" fill="#EA4335"/>
<path d="M31.3603 16.3559C31.3603 15.0403 31.2536 14.0803 31.0225 13.0847H16V19.0226H24.8179C24.6401 20.4982 23.6801 22.7204 21.5468 24.2138L26.5957 28.125C29.618 25.3338 31.3603 21.2271 31.3603 16.3559Z" fill="#4285F4"/>
<path d="M6.89691 19.1642C6.55913 18.1686 6.36357 17.102 6.36357 15.9997C6.36357 14.8975 6.55913 13.8308 6.87914 12.8352L1.70572 8.81738C0.621256 10.9863 -0.000976562 13.4219 -0.000976562 15.9997C-0.000976562 18.5775 0.621256 21.0131 1.70572 23.1821L6.89691 19.1642Z" fill="#FBBC05"/>
<path d="M16.0014 32.0008C20.3214 32.0008 23.9482 30.5786 26.5971 28.1252L21.5481 24.214C20.197 25.1562 18.3836 25.814 16.0014 25.814C11.7702 25.814 8.17903 23.0229 6.899 19.165L1.72559 23.1829C4.35674 28.4096 9.74349 32.0008 16.0014 32.0008Z" fill="#34A853"/>
</svg>
