<svg width="267" height="267" viewBox="0 0 267 267" fill="none" xmlns="http://www.w3.org/2000/svg">
<g clip-path="url(#clip0_202_877)">
<path d="M222.571 44.4292L173.09 93.9095C162.957 83.7761 148.959 77.5074 133.5 77.5074V7.53503C168.282 7.53503 199.778 21.6305 222.571 44.4292Z" fill="url(#paint0_linear_202_877)"/>
<path d="M93.9116 93.9094C83.7782 104.043 77.5094 118.041 77.5094 133.5H7.53711C7.53711 98.7174 21.6326 67.2219 44.4313 44.429L93.9116 93.9094Z" fill="url(#paint1_linear_202_877)"/>
<path d="M133.502 7.53503V77.5074C118.044 77.5074 104.045 83.7761 93.912 93.9095L44.4316 44.4292C67.2245 21.6305 98.7201 7.53503 133.502 7.53503Z" fill="url(#paint2_linear_202_877)"/>
<path d="M259.466 133.5H189.494C189.494 118.041 183.225 104.043 173.092 93.9094L222.572 44.429C245.371 67.2219 259.466 98.7174 259.466 133.5Z" fill="url(#paint3_linear_202_877)"/>
<path d="M259.466 133.5C259.466 168.282 245.371 199.778 222.572 222.571L173.092 173.09C183.225 162.957 189.494 148.959 189.494 133.5H259.466Z" fill="url(#paint4_linear_202_877)"/>
<path d="M93.9116 173.09L44.4313 222.571C21.6326 199.778 7.53711 168.282 7.53711 133.5H77.5094C77.5094 148.959 83.7782 162.957 93.9116 173.09Z" fill="url(#paint5_linear_202_877)"/>
<path d="M222.571 222.571C199.778 245.369 168.282 259.465 133.5 259.465V189.493C148.959 189.493 162.957 183.224 173.09 173.09L222.571 222.571Z" fill="url(#paint6_linear_202_877)"/>
<path d="M133.502 189.493V259.465C98.7201 259.465 67.2245 245.369 44.4316 222.571L93.912 173.09C104.045 183.224 118.044 189.493 133.502 189.493Z" fill="url(#paint7_linear_202_877)"/>
<path d="M201.068 65.9314L173.09 93.9093C162.957 83.7759 148.959 77.5071 133.5 77.5071V37.9471C159.89 37.9471 183.771 48.6408 201.068 65.9314Z" fill="url(#paint8_linear_202_877)"/>
<path d="M93.9123 93.9093C83.7789 104.043 77.5102 118.041 77.5102 133.5H37.9502C37.9502 107.11 48.6433 83.2283 65.9344 65.9314L93.9123 93.9093Z" fill="url(#paint9_linear_202_877)"/>
<path d="M133.503 37.9471V77.5071C118.044 77.5071 104.046 83.7759 93.9125 93.9093L65.9346 65.9314C83.2315 48.6408 107.113 37.9471 133.503 37.9471Z" fill="url(#paint10_linear_202_877)"/>
<path d="M229.054 133.5H189.494C189.494 118.041 183.225 104.043 173.092 93.9093L201.07 65.9314C218.36 83.2283 229.054 107.11 229.054 133.5Z" fill="url(#paint11_linear_202_877)"/>
<path d="M229.054 133.5C229.054 159.889 218.36 183.771 201.07 201.068L173.092 173.09C183.225 162.957 189.494 148.959 189.494 133.5H229.054Z" fill="url(#paint12_linear_202_877)"/>
<path d="M93.9123 173.09L65.9344 201.068C48.6438 183.771 37.9502 159.889 37.9502 133.5H77.5102C77.5102 148.959 83.7789 162.957 93.9123 173.09Z" fill="url(#paint13_linear_202_877)"/>
<path d="M201.068 201.068C183.771 218.358 159.89 229.052 133.5 229.052V189.492C148.959 189.492 162.957 183.223 173.09 173.09L201.068 201.068Z" fill="url(#paint14_linear_202_877)"/>
<path d="M133.503 189.492V229.052C107.113 229.052 83.2315 218.358 65.9346 201.068L93.9125 173.09C104.046 183.223 118.044 189.492 133.503 189.492Z" fill="url(#paint15_linear_202_877)"/>
<path d="M237.118 61.8633L185.72 113.261C188.155 119.539 189.494 126.363 189.494 133.499C189.494 148.958 183.225 162.956 173.092 173.09C162.958 183.223 148.96 189.492 133.501 189.492C126.365 189.492 119.54 188.153 113.263 185.718L61.8652 237.116C82.2044 251.205 106.888 259.464 133.502 259.464C168.284 259.464 199.78 245.369 222.573 222.57C245.371 199.778 259.467 168.282 259.467 133.499C259.466 106.886 251.206 82.2025 237.118 61.8633Z" fill="url(#paint16_linear_202_877)"/>
<path d="M27.1787 185.613L0.276592 260.867C-1.0249 264.509 2.49112 268.025 6.13227 266.724L81.387 239.821C96.4013 224.807 42.1925 170.599 27.1787 185.613Z" fill="url(#paint17_linear_202_877)"/>
<path d="M172.234 148.983L81.3855 239.822C79.9013 237.25 77.6459 234.974 74.7565 233.361C70.8091 231.175 64.6357 232.372 60.3616 233.668C59.4313 233.945 58.5805 233.46 58.2345 232.719C58.0167 232.274 57.9774 231.729 58.2146 231.195C58.2245 231.195 58.2245 231.185 58.2245 231.185C58.4622 230.641 58.6701 230.087 58.8481 229.533C58.9271 229.266 59.0062 228.999 59.0857 228.731C59.0957 228.711 59.0957 228.701 59.0957 228.682C59.3234 227.821 59.4815 226.961 59.5705 226.08C59.6004 225.793 59.6203 225.496 59.6396 225.21C59.6642 224.732 59.6689 224.254 59.6532 223.776C59.5449 220.431 58.4523 217.109 56.3744 214.287C55.8697 213.595 55.3059 212.942 54.6829 212.318C54.0593 211.695 53.4065 211.131 52.7139 210.626C49.4884 208.252 45.6101 207.163 41.7915 207.361C41.5046 207.381 41.2077 207.401 40.9208 207.43C40.0403 207.519 39.1696 207.678 38.3189 207.905C38.299 207.905 38.2891 207.905 38.2692 207.915C38.0022 207.994 37.7346 208.073 37.4676 208.153C37.1807 208.242 36.9038 208.341 36.6268 208.45C36.3598 208.549 36.0923 208.658 35.8253 208.776C35.8154 208.776 35.8154 208.776 35.8054 208.786C35.2709 209.024 34.727 208.984 34.282 208.767C33.5401 208.42 33.0553 207.569 33.3323 206.639C34.6285 202.365 35.8253 196.202 33.6391 192.254C32.0261 189.356 29.7608 187.1 27.1787 185.616L118.017 94.768C122.113 90.6818 128.742 90.6818 132.828 94.768L140.555 102.495L164.507 126.447L172.234 134.174C176.319 138.259 176.319 144.887 172.234 148.983Z" fill="url(#paint18_linear_202_877)"/>
<path d="M164.508 126.446L58.2357 232.718C58.0179 232.273 57.9787 231.729 58.2158 231.195C58.2258 231.195 58.2258 231.185 58.2258 231.185C58.4634 230.641 59.4922 226.95 59.5712 226.08C59.611 225.783 59.6304 225.496 59.6403 225.209C59.8382 221.391 58.7498 217.512 56.3756 214.287C55.8709 213.594 55.3071 212.941 54.6841 212.318C54.0606 211.694 53.4077 211.13 52.7151 210.626C49.4896 208.252 45.6113 207.163 41.7927 207.361C41.5058 207.371 41.2189 207.391 40.9221 207.43C40.0514 207.509 39.1808 207.668 38.3201 207.905C38.3002 207.905 38.2903 207.905 38.2704 207.915C38.0034 207.984 36.0941 208.657 35.8266 208.776C35.8166 208.776 35.8166 208.776 35.8067 208.786C35.2721 209.023 34.7282 208.983 34.2832 208.766L140.555 102.493L164.508 126.446Z" fill="url(#paint19_linear_202_877)"/>
<path d="M15.4668 251.533C12.6188 248.685 9.43574 246.4 6.06892 244.664L0.276592 260.868C-1.0249 264.509 2.49112 268.026 6.13227 266.723L22.336 260.931C20.6 257.564 18.3148 254.381 15.4668 251.533Z" fill="url(#paint20_linear_202_877)"/>
<path d="M258.523 8.47447L148.825 118.172L132.779 102.126C129.281 98.6278 129.281 92.9564 132.779 89.4587L142.376 79.8614C146.519 75.7187 148.846 70.1002 148.846 64.2419V52.2818C148.846 42.8724 154.806 34.496 163.696 31.4124L253.4 0.296942C258.366 -1.42599 262.239 4.75741 258.523 8.47447Z" fill="url(#paint21_linear_202_877)"/>
<path d="M258.521 8.47468L148.823 118.172L164.87 134.219C168.368 137.717 174.039 137.717 177.537 134.219L187.134 124.622C191.277 120.479 196.895 118.152 202.754 118.152H214.713C224.122 118.152 232.499 112.192 235.582 103.302L266.698 13.5969C268.421 8.63121 262.237 4.75761 258.521 8.47468Z" fill="url(#paint22_linear_202_877)"/>
<path d="M206.841 65.3084L261.941 10.208C263.313 8.83635 263.476 6.60349 262.195 5.14599C260.792 3.5487 258.358 3.49006 256.878 4.96903L201.819 60.0292C198.214 63.6342 193.218 65.6079 188.139 65.1592C183.442 64.7446 178.588 66.523 175.239 70.4966C170.493 76.1272 170.568 84.5256 175.404 90.0792C181.21 96.7469 191.335 97.0081 197.48 90.8635C200.698 87.6453 202.157 83.3362 201.861 79.1275C201.499 73.9995 203.206 68.9433 206.841 65.3084Z" fill="url(#paint23_linear_202_877)"/>
<path d="M147.915 70.5786C146.874 74.0522 144.986 77.25 142.376 79.8608L132.779 89.4581C129.281 92.9558 129.281 98.6273 132.779 102.125L148.825 118.172L164.872 134.218C168.37 137.716 174.041 137.716 177.539 134.218L187.136 124.621C189.747 122.01 192.945 120.122 196.418 119.082L147.915 70.5786Z" fill="url(#paint24_linear_202_877)"/>
<path d="M158.798 162.417L104.582 108.2L126.189 86.5938C128.691 84.0914 132.748 84.0914 135.25 86.5938L180.405 131.749C182.907 134.251 182.907 138.308 180.405 140.81L158.798 162.417Z" fill="url(#paint25_linear_202_877)"/>
</g>
<defs>
<linearGradient id="paint0_linear_202_877" x1="119.865" y1="2.79814" x2="203.143" y2="86.076" gradientUnits="userSpaceOnUse">
<stop stop-color="#FFF5D9"/>
<stop offset="1" stop-color="#FFCE47"/>
</linearGradient>
<linearGradient id="paint1_linear_202_877" x1="23.5911" y1="86.571" x2="60.867" y2="123.847" gradientUnits="userSpaceOnUse">
<stop stop-color="#6FA953"/>
<stop offset="1" stop-color="#43765A"/>
</linearGradient>
<linearGradient id="paint2_linear_202_877" x1="84.3832" y1="21.3981" x2="133.37" y2="70.3853" gradientUnits="userSpaceOnUse">
<stop stop-color="#E4E08E"/>
<stop offset="1" stop-color="#6FA953"/>
</linearGradient>
<linearGradient id="paint3_linear_202_877" x1="173.725" y1="56.6566" x2="253.233" y2="136.164" gradientUnits="userSpaceOnUse">
<stop stop-color="#FFCE47"/>
<stop offset="1" stop-color="#FF9356"/>
</linearGradient>
<linearGradient id="paint4_linear_202_877" x1="191.388" y1="128.404" x2="237.48" y2="174.497" gradientUnits="userSpaceOnUse">
<stop stop-color="#FF9356"/>
<stop offset="1" stop-color="#FF755C"/>
</linearGradient>
<linearGradient id="paint5_linear_202_877" x1="16.9496" y1="134.015" x2="71.1857" y2="188.251" gradientUnits="userSpaceOnUse">
<stop stop-color="#7ACBFF"/>
<stop offset="1" stop-color="#45A2E0"/>
</linearGradient>
<linearGradient id="paint6_linear_202_877" x1="133.412" y1="196.394" x2="178.911" y2="241.894" gradientUnits="userSpaceOnUse">
<stop stop-color="#FF755C"/>
<stop offset="1" stop-color="#FF4181"/>
</linearGradient>
<linearGradient id="paint7_linear_202_877" x1="55.7467" y1="172.811" x2="165.769" y2="282.834" gradientUnits="userSpaceOnUse">
<stop stop-color="#FF4181"/>
<stop offset="1" stop-color="#843561"/>
</linearGradient>
<linearGradient id="paint8_linear_202_877" x1="183.797" y1="88.2321" x2="132.543" y2="36.9781" gradientUnits="userSpaceOnUse">
<stop stop-color="#FFF5D9"/>
<stop offset="1" stop-color="#FFCE47"/>
</linearGradient>
<linearGradient id="paint9_linear_202_877" x1="82.5313" y1="130.305" x2="19.0063" y2="66.7795" gradientUnits="userSpaceOnUse">
<stop stop-color="#6FA953"/>
<stop offset="1" stop-color="#43765A"/>
</linearGradient>
<linearGradient id="paint10_linear_202_877" x1="126.96" y1="79.1808" x2="70.4265" y2="22.647" gradientUnits="userSpaceOnUse">
<stop stop-color="#E4E08E"/>
<stop offset="1" stop-color="#6FA953"/>
</linearGradient>
<linearGradient id="paint11_linear_202_877" x1="228.451" y1="132.885" x2="168.77" y2="73.2037" gradientUnits="userSpaceOnUse">
<stop stop-color="#FFCE47"/>
<stop offset="1" stop-color="#FF9356"/>
</linearGradient>
<linearGradient id="paint12_linear_202_877" x1="224.337" y1="176.559" x2="184.465" y2="136.687" gradientUnits="userSpaceOnUse">
<stop stop-color="#FF9356"/>
<stop offset="1" stop-color="#FF755C"/>
</linearGradient>
<linearGradient id="paint13_linear_202_877" x1="98.1969" y1="193.759" x2="24.5814" y2="120.143" gradientUnits="userSpaceOnUse">
<stop stop-color="#7ACBFF"/>
<stop offset="1" stop-color="#45A2E0"/>
</linearGradient>
<linearGradient id="paint14_linear_202_877" x1="178.689" y1="226.465" x2="125.033" y2="172.809" gradientUnits="userSpaceOnUse">
<stop stop-color="#FF755C"/>
<stop offset="1" stop-color="#FF4181"/>
</linearGradient>
<linearGradient id="paint15_linear_202_877" x1="134.714" y1="230.275" x2="69.2307" y2="164.792" gradientUnits="userSpaceOnUse">
<stop stop-color="#FF4181"/>
<stop offset="1" stop-color="#843561"/>
</linearGradient>
<linearGradient id="paint16_linear_202_877" x1="187.584" y1="187.582" x2="149.528" y2="149.526" gradientUnits="userSpaceOnUse">
<stop stop-color="#843561" stop-opacity="0"/>
<stop offset="1" stop-color="#3A2F4D"/>
</linearGradient>
<linearGradient id="paint17_linear_202_877" x1="6.41005" y1="206.366" x2="60.6108" y2="260.567" gradientUnits="userSpaceOnUse">
<stop stop-color="#FFE0EA"/>
<stop offset="1" stop-color="#FFC0D5"/>
</linearGradient>
<linearGradient id="paint18_linear_202_877" x1="27.1787" y1="165.762" x2="175.298" y2="165.762" gradientUnits="userSpaceOnUse">
<stop stop-color="#FFCE47"/>
<stop offset="1" stop-color="#FF9356"/>
</linearGradient>
<linearGradient id="paint19_linear_202_877" x1="121.888" y1="190.099" x2="67.164" y2="135.375" gradientUnits="userSpaceOnUse">
<stop stop-color="#FFCE47"/>
<stop offset="1" stop-color="#FF9356"/>
</linearGradient>
<linearGradient id="paint20_linear_202_877" x1="6.83925" y1="256.865" x2="20.669" y2="270.695" gradientUnits="userSpaceOnUse">
<stop stop-color="#2F73A0"/>
<stop offset="1" stop-color="#174461"/>
</linearGradient>
<linearGradient id="paint21_linear_202_877" x1="192.627" y1="46.8609" x2="199.764" y2="58.5864" gradientUnits="userSpaceOnUse">
<stop stop-color="#EDF5FF"/>
<stop offset="1" stop-color="#C7E9FF"/>
</linearGradient>
<linearGradient id="paint22_linear_202_877" x1="210.751" y1="69.4231" x2="220.437" y2="86.7562" gradientUnits="userSpaceOnUse">
<stop stop-color="#EDF5FF"/>
<stop offset="1" stop-color="#C7E9FF"/>
</linearGradient>
<linearGradient id="paint23_linear_202_877" x1="229.056" y1="57.8293" x2="212.423" y2="41.1961" gradientUnits="userSpaceOnUse">
<stop stop-color="#2F73A0"/>
<stop offset="1" stop-color="#174461"/>
</linearGradient>
<linearGradient id="paint24_linear_202_877" x1="166.034" y1="100.954" x2="156.947" y2="110.04" gradientUnits="userSpaceOnUse">
<stop stop-color="#7ACBFF" stop-opacity="0"/>
<stop offset="1" stop-color="#2F73A0"/>
</linearGradient>
<linearGradient id="paint25_linear_202_877" x1="149.006" y1="114.218" x2="134.86" y2="136.938" gradientUnits="userSpaceOnUse">
<stop stop-color="#2F73A0"/>
<stop offset="1" stop-color="#174461"/>
</linearGradient>
<clipPath id="clip0_202_877">
<rect width="267" height="267" fill="white"/>
</clipPath>
</defs>
</svg>
