<svg width="267" height="267" viewBox="0 0 267 267" fill="none" xmlns="http://www.w3.org/2000/svg">
<g clip-path="url(#clip0_202_822)">
<path d="M238.911 98.2374H28.3115C28.3897 96.0628 28.4888 93.8882 28.614 91.3121C29.0572 81.1692 30.5956 73.1749 33.5994 65.4047C36.3111 58.2083 40.6707 51.502 46.1984 46.0525C51.6792 40.4517 58.2134 36.1912 65.6289 33.3856C73.3156 30.3975 81.31 28.8591 91.5154 28.4106C102.56 27.9257 106.211 27.8109 133.609 27.8109C161.211 27.8109 164.835 27.9309 175.755 28.4524C178.023 28.5514 180.182 28.7079 182.253 28.9217C189.46 29.6622 195.629 31.1067 201.657 33.4377C208.854 36.1495 215.555 40.5091 221.009 46.042C226.604 51.5228 230.865 58.0622 233.665 65.4725C236.653 73.1592 238.192 81.1536 238.645 91.3642V91.3694C238.755 93.9299 238.844 96.0785 238.911 98.2374Z" fill="#9090FB"/>
<path d="M239.162 133.469C239.162 154.49 239.094 161.535 238.849 168.664H28.2908C28.0404 161.535 27.9727 154.49 27.9727 133.469C27.9727 112.38 28.0405 105.282 28.3116 98.2372H238.911C239.135 105.23 239.162 112.291 239.162 133.469Z" fill="#FF6B81"/>
<path d="M238.849 168.664C238.771 170.828 238.677 173.003 238.568 175.574C238.119 185.727 236.581 193.721 233.577 201.491C227.908 216.166 216.243 227.832 201.579 233.5C196.062 235.643 190.404 237.041 183.89 237.834C181.299 238.146 178.566 238.365 175.661 238.491C164.648 238.976 161.003 239.09 133.568 239.09C106.132 239.09 102.487 238.976 91.474 238.491C81.3155 238.042 73.3264 236.504 65.5615 233.5C58.3598 230.794 51.6587 226.429 46.204 220.896C40.5824 215.352 36.3271 208.818 33.5528 201.465C30.5595 193.779 29.0211 185.784 28.5726 175.574C28.4579 173.003 28.364 170.828 28.291 168.664H238.849Z" fill="#FBDF63"/>
<path d="M233.579 201.491C227.911 216.166 216.245 227.832 201.581 233.5C196.064 235.643 190.406 237.041 183.893 237.834C186.104 237.218 188.257 236.504 190.385 235.675C205.346 229.891 217.252 217.986 223.035 203.014C226.101 195.082 227.671 186.926 228.13 176.564C228.239 173.941 228.333 171.725 228.416 169.514C228.427 169.232 228.437 168.946 228.442 168.664H238.851C238.773 170.828 238.679 173.003 238.57 175.574C238.121 185.727 236.583 193.721 233.579 201.491Z" fill="#FFA402"/>
<path d="M133.483 188.15C163.681 188.15 188.161 163.66 188.161 133.45C188.161 103.24 163.681 78.7505 133.483 78.7505C103.286 78.7505 78.8057 103.24 78.8057 133.45C78.8057 163.66 103.286 188.15 133.483 188.15Z" fill="white"/>
<path d="M133.636 172.507C155.193 172.42 172.599 154.868 172.512 133.302C172.426 111.736 154.881 94.323 133.323 94.4092C111.766 94.4954 94.36 112.048 94.4462 133.614C94.5325 155.18 112.078 172.593 133.636 172.507Z" fill="#56788B"/>
<path d="M194.407 61.0396C186.5 61.0396 180.066 67.4747 180.066 75.3846C180.066 83.2944 186.5 89.7296 194.407 89.7296C202.314 89.7296 208.748 83.2944 208.748 75.3846C208.748 67.4747 202.314 61.0396 194.407 61.0396Z" fill="white"/>
<path d="M267 219.278V255.047C267 261.636 261.634 267 255.048 267H178.892C172.3 267 166.939 261.636 166.939 255.047V194.757C166.939 193.271 167.784 191.916 169.114 191.254C170.444 190.592 172.034 190.748 173.218 191.645L193.858 207.331H255.048C261.634 207.33 267 212.689 267 219.278Z" fill="#D9F0F4"/>
<path d="M244.252 243.058H192.134C189.974 243.058 188.223 244.809 188.223 246.968C188.223 249.127 189.973 250.877 192.134 250.877H244.252C246.413 250.877 248.163 249.127 248.163 246.968C248.163 244.809 246.412 243.058 244.252 243.058Z" fill="white"/>
<path d="M192.134 233.154H239.041C241.201 233.154 242.952 231.403 242.952 229.244C242.952 227.085 241.202 225.335 239.041 225.335H192.134C189.974 225.335 188.223 227.085 188.223 229.244C188.223 231.404 189.974 233.154 192.134 233.154Z" fill="white"/>
<path d="M266.998 219.278V255.048C266.998 261.636 261.632 267 255.046 267H244.616C251.203 267 256.569 261.636 256.569 255.048V219.278C256.569 212.689 251.203 207.331 244.616 207.331H255.046C261.632 207.33 266.998 212.689 266.998 219.278Z" fill="#BAE1E5"/>
<path d="M104.003 13.0006V62.8284C104.003 70.0009 98.1731 75.829 90.9975 75.829H77.1421L68.7723 87.8811C68.0422 88.9339 66.8428 89.5649 65.56 89.5649C64.2771 89.5649 63.0777 88.9339 62.3476 87.8811L53.983 75.829H13.0058C5.83541 75.829 0 70.0009 0 62.8284V13.0006C0 5.8328 5.83541 0 13.0058 0H90.998C98.1731 0 104.003 5.8328 104.003 13.0006Z" fill="#4DD4F7"/>
<path d="M68.8343 25.0365C68.8338 25.0365 68.8338 25.036 68.8343 25.0365C64.2781 20.4824 56.8605 20.4866 52.3001 25.0459L52.0019 25.3442L51.703 25.0454C49.4946 22.8374 46.5586 21.6203 43.4365 21.6177H43.4276C40.3076 21.6177 37.3747 22.8317 35.1699 25.036C32.9625 27.2424 31.7479 30.1773 31.75 33.2989C31.7526 36.42 32.9703 39.3544 35.1793 41.5624L50.1584 56.5352C50.6674 57.0442 51.3349 57.2987 52.0019 57.2987C52.6688 57.2987 53.3369 57.0442 53.8453 56.5352L68.8244 41.5618C73.3853 37.0041 73.3895 29.5906 68.8343 25.0365Z" fill="white"/>
<path d="M104.005 13.0006V62.8284C104.005 70.0009 98.1746 75.829 90.999 75.829H80.5693C87.745 75.829 93.5752 70.0015 93.5752 62.8284V13.0006C93.5752 5.83332 87.745 0 80.5693 0H90.999C98.1746 0 104.005 5.8328 104.005 13.0006Z" fill="#00C2F3"/>
<path d="M190.459 31.5291C187.779 30.4914 185.067 29.6257 182.251 28.9217C189.458 29.6622 195.627 31.1067 201.655 33.4377C208.852 36.1495 215.553 40.5091 221.007 46.042C226.603 51.5228 230.863 58.0622 233.664 65.4725C236.652 73.1592 238.19 81.1536 238.644 91.3642V91.3694C238.753 93.9299 238.842 96.0784 238.91 98.2374H228.496C228.485 98.0392 228.48 97.8463 228.475 97.6481C228.407 95.4474 228.313 93.2572 228.204 90.6446V90.6394C227.74 80.2201 226.17 72.0589 223.119 64.2158C220.261 56.6542 215.917 49.9792 210.207 44.3889C204.644 38.7412 197.802 34.293 190.459 31.5291Z" fill="#6C5FEA"/>
<path d="M228.439 168.664C228.669 161.66 228.731 154.219 228.731 133.599C228.731 112.588 228.705 105.194 228.497 98.2372H238.911C239.135 105.23 239.161 112.291 239.161 133.469C239.161 154.49 239.093 161.535 238.848 168.664H228.439Z" fill="#ED2061"/>
</g>
<defs>
<clipPath id="clip0_202_822">
<rect width="267" height="267" fill="white"/>
</clipPath>
</defs>
</svg>
