<svg width="48" height="48" viewBox="0 0 48 48" fill="none" xmlns="http://www.w3.org/2000/svg">
<g clip-path="url(#clip0_167_13439)">
<path d="M38.3787 24.1156C38.3787 29.0386 34.3955 33.0294 29.4819 33.0294C24.5682 33.0294 20.585 29.0386 20.585 24.1156C20.585 19.1927 24.5682 15.2019 29.4819 15.2019C34.3955 15.2019 38.3787 19.1927 38.3787 24.1156Z" fill="#F79F1A"/>
<path d="M27.4032 24.1156C27.4032 29.0386 23.4199 33.0294 18.5063 33.0294C13.5927 33.0294 9.60938 29.0386 9.60938 24.1156C9.60938 19.1927 13.5927 15.2019 18.5063 15.2019C23.4199 15.2019 27.4032 19.1927 27.4032 24.1156Z" fill="#EA001B"/>
<path d="M23.9943 17.0986C21.9185 18.7304 20.5859 21.2662 20.5859 24.1148C20.5859 26.9633 21.9185 29.501 23.9943 31.1328C26.0702 29.501 27.4027 26.9633 27.4027 24.1148C27.4027 21.2662 26.0702 18.7304 23.9943 17.0986Z" fill="#FF5F01"/>
</g>
<defs>
<clipPath id="clip0_167_13439">
<rect width="48" height="48" fill="white"/>
</clipPath>
</defs>
</svg>
