<svg width="20" height="20" viewBox="0 0 20 20" fill="none" xmlns="http://www.w3.org/2000/svg">
<path d="M0 10C0 4.47715 4.47715 0 10 0C15.5228 0 20 4.47715 20 10C20 15.5228 15.5228 20 10 20C4.47715 20 0 15.5228 0 10Z" fill="white"/>
<path d="M8.42197 15.0512L8.5963 13.9439L8.20797 13.9349H6.35364L7.6423 5.76389C7.6463 5.73923 7.6593 5.71623 7.6783 5.69989C7.6973 5.68356 7.72164 5.67456 7.74697 5.67456H10.8736C11.9116 5.67456 12.628 5.89056 13.002 6.31689C13.1773 6.51689 13.289 6.72589 13.343 6.95589C13.3996 7.19723 13.4006 7.48556 13.3453 7.83723L13.3413 7.86289V8.08823L13.5166 8.18756C13.6643 8.26589 13.7816 8.35556 13.8716 8.45823C14.0216 8.62923 14.1186 8.84656 14.1596 9.10423C14.202 9.36923 14.188 9.68456 14.1186 10.0416C14.0386 10.4522 13.9093 10.8099 13.7346 11.1026C13.574 11.3722 13.3693 11.5959 13.1263 11.7692C12.8943 11.9339 12.6186 12.0589 12.307 12.1389C12.005 12.2176 11.6606 12.2572 11.283 12.2572H11.0396C10.8656 12.2572 10.6966 12.3199 10.564 12.4322C10.431 12.5469 10.343 12.7036 10.316 12.8749L10.2976 12.9746L9.98964 14.9262L9.97564 14.9979C9.97197 15.0206 9.96564 15.0319 9.9563 15.0396C9.94797 15.0466 9.93597 15.0512 9.9243 15.0512H8.42197Z" fill="#253B80"/>
<path d="M13.6826 7.88892C13.6733 7.94858 13.6626 8.00958 13.6506 8.07225C13.2383 10.1892 11.8276 10.9206 10.026 10.9206H9.10863C8.8883 10.9206 8.70263 11.0806 8.6683 11.2979L8.19863 14.2766L8.06563 15.1209C8.0433 15.2636 8.1533 15.3922 8.2973 15.3922H9.9243C10.117 15.3922 10.2806 15.2522 10.311 15.0622L10.327 14.9796L10.6333 13.0356L10.653 12.9289C10.683 12.7382 10.847 12.5982 11.0396 12.5982H11.283C12.8593 12.5982 14.0933 11.9582 14.454 10.1062C14.6046 9.33258 14.5266 8.68658 14.128 8.23225C14.0073 8.09525 13.8576 7.98158 13.6826 7.88892Z" fill="#179BD7"/>
<path d="M13.2513 7.71685C13.1883 7.69851 13.1233 7.68185 13.0567 7.66685C12.9897 7.65218 12.921 7.63918 12.8503 7.62785C12.603 7.58785 12.332 7.56885 12.0417 7.56885H9.591C9.53067 7.56885 9.47333 7.58251 9.422 7.60718C9.309 7.66151 9.225 7.76851 9.20467 7.89951L8.68333 11.2015L8.66833 11.2978C8.70267 11.0805 8.88833 10.9205 9.10867 10.9205H10.026C11.8277 10.9205 13.2383 10.1888 13.6507 8.07218C13.663 8.00951 13.6733 7.94851 13.6827 7.88885C13.5783 7.83351 13.4653 7.78618 13.3437 7.74585C13.3137 7.73585 13.2827 7.72618 13.2513 7.71685Z" fill="#222D65"/>
<path d="M9.422 7.60758C9.47366 7.58292 9.53066 7.56925 9.591 7.56925H12.0417C12.332 7.56925 12.603 7.58825 12.8503 7.62825C12.921 7.63959 12.9897 7.65259 13.0567 7.66725C13.1233 7.68225 13.1883 7.69892 13.2513 7.71725C13.2827 7.72659 13.3137 7.73625 13.344 7.74592C13.4657 7.78625 13.5787 7.83392 13.683 7.88892C13.8057 7.10659 13.682 6.57392 13.259 6.09159C12.7927 5.56059 11.951 5.33325 10.874 5.33325H7.74733C7.52733 5.33325 7.33966 5.49325 7.30566 5.71092L6.00333 13.9659C5.97766 14.1293 6.10366 14.2766 6.26833 14.2766H8.19866L8.68333 11.2016L9.20466 7.89959C9.225 7.76859 9.309 7.66158 9.422 7.60758Z" fill="#253B80"/>
</svg>
