<svg width="1107" height="272" viewBox="0 0 1107 272" fill="none" xmlns="http://www.w3.org/2000/svg">
<g opacity="0.4">
<mask id="mask0_27322_65084" style="mask-type:alpha" maskUnits="userSpaceOnUse" x="354" y="-14" width="788" height="510">
<path d="M503.418 241C503.418 326.321 436.613 395.763 354.533 395.763L354.533 495.24C489.431 495.24 599.116 381.224 599.116 241C599.116 155.679 665.92 86.2369 748 86.2369C830.08 86.2369 896.884 155.679 896.884 241C896.7 381.224 1006.39 495.24 1141.28 495.24L1141.28 395.763C1059.2 395.763 992.398 326.321 992.398 241C992.398 100.776 882.714 -13.24 747.816 -13.2399C612.918 -13.2399 503.418 100.967 503.418 241Z" fill="url(#paint0_linear_27322_65084)"/>
</mask>
<g mask="url(#mask0_27322_65084)">
<g filter="url(#filter0_ii_27322_65084)">
<path d="M503.418 241C503.418 326.321 436.613 395.763 354.533 395.763L354.533 495.24C489.431 495.24 599.116 381.224 599.116 241C599.116 155.679 665.92 86.2369 748 86.2369C830.08 86.2369 896.884 155.679 896.884 241C896.7 381.224 1006.39 495.24 1141.28 495.24L1141.28 395.763C1059.2 395.763 992.398 326.321 992.398 241C992.398 100.776 882.714 -13.24 747.816 -13.2399C612.918 -13.2399 503.418 100.967 503.418 241Z" fill="url(#paint1_radial_27322_65084)"/>
<path d="M503.418 241C503.418 326.321 436.613 395.763 354.533 395.763L354.533 495.24C489.431 495.24 599.116 381.224 599.116 241C599.116 155.679 665.92 86.2369 748 86.2369C830.08 86.2369 896.884 155.679 896.884 241C896.7 381.224 1006.39 495.24 1141.28 495.24L1141.28 395.763C1059.2 395.763 992.398 326.321 992.398 241C992.398 100.776 882.714 -13.24 747.816 -13.2399C612.918 -13.2399 503.418 100.967 503.418 241Z" fill="#B5B5B5" fill-opacity="0.2"/>
</g>
</g>
<mask id="mask1_27322_65084" style="mask-type:alpha" maskUnits="userSpaceOnUse" x="354" y="-14" width="788" height="510">
<path d="M503.418 241C503.418 155.679 436.613 86.2369 354.533 86.2369L354.533 -13.2399C489.431 -13.2399 599.116 100.776 599.116 241C599.116 326.321 665.92 395.763 748 395.763C830.08 395.763 896.884 326.321 896.884 241C896.884 100.776 1006.57 -13.24 1141.47 -13.24L1141.47 86.2369C1059.39 86.2369 992.582 155.679 992.582 241C992.398 381.224 882.714 495.24 747.816 495.24C612.918 495.24 503.418 381.224 503.418 241Z" fill="url(#paint2_linear_27322_65084)"/>
</mask>
<g mask="url(#mask1_27322_65084)">
<g filter="url(#filter1_ii_27322_65084)">
<path d="M503.418 241C503.418 155.679 436.613 86.2369 354.533 86.2369L354.533 -13.2399C489.431 -13.2399 599.116 100.776 599.116 241C599.116 326.321 665.92 395.763 748 395.763C830.08 395.763 896.884 326.321 896.884 241C896.884 100.776 1006.57 -13.24 1141.47 -13.24L1141.47 86.2369C1059.39 86.2369 992.582 155.679 992.582 241C992.398 381.224 882.714 495.24 747.816 495.24C612.918 495.24 503.418 381.224 503.418 241Z" fill="url(#paint3_radial_27322_65084)"/>
<path d="M503.418 241C503.418 155.679 436.613 86.2369 354.533 86.2369L354.533 -13.2399C489.431 -13.2399 599.116 100.776 599.116 241C599.116 326.321 665.92 395.763 748 395.763C830.08 395.763 896.884 326.321 896.884 241C896.884 100.776 1006.57 -13.24 1141.47 -13.24L1141.47 86.2369C1059.39 86.2369 992.582 155.679 992.582 241C992.398 381.224 882.714 495.24 747.816 495.24C612.918 495.24 503.418 381.224 503.418 241Z" fill="#B5B5B5" fill-opacity="0.2"/>
</g>
</g>
</g>
<circle cx="1019" cy="62" r="3.78641" fill="#E5ECF6"/>
<path fill-rule="evenodd" clip-rule="evenodd" d="M1019 71.5924C1024.3 71.5924 1028.59 67.2978 1028.59 62.0002C1028.59 56.7025 1024.3 52.4079 1019 52.4079C1013.7 52.4079 1009.41 56.7025 1009.41 62.0002C1009.41 67.2978 1013.7 71.5924 1019 71.5924ZM1019 71.8448C1024.44 71.8448 1028.84 67.4372 1028.84 62.0002C1028.84 56.5631 1024.44 52.1555 1019 52.1555C1013.56 52.1555 1009.16 56.5631 1009.16 62.0002C1009.16 67.4372 1013.56 71.8448 1019 71.8448Z" fill="#E5ECF6"/>
<path fill-rule="evenodd" clip-rule="evenodd" d="M1019 76.5145C1027.02 76.5145 1033.51 70.0161 1033.51 61.9999C1033.51 53.9837 1027.02 47.4853 1019 47.4853C1010.98 47.4853 1004.49 53.9837 1004.49 61.9999C1004.49 70.0161 1010.98 76.5145 1019 76.5145ZM1019 76.7669C1027.16 76.7669 1033.77 70.1555 1033.77 61.9999C1033.77 53.8443 1027.16 47.2329 1019 47.2329C1010.84 47.2329 1004.23 53.8443 1004.23 61.9999C1004.23 70.1555 1010.84 76.7669 1019 76.7669Z" fill="#E5ECF6"/>
<path fill-rule="evenodd" clip-rule="evenodd" d="M1019 81.0581C1029.53 81.0581 1038.06 72.5255 1038.06 61.9999C1038.06 51.4743 1029.53 42.9416 1019 42.9416C1008.47 42.9416 999.942 51.4743 999.942 61.9999C999.942 72.5255 1008.47 81.0581 1019 81.0581ZM1019 81.3106C1029.67 81.3106 1038.31 72.6649 1038.31 61.9999C1038.31 51.3349 1029.67 42.6892 1019 42.6892C1008.34 42.6892 999.689 51.3349 999.689 61.9999C999.689 72.6649 1008.34 81.3106 1019 81.3106Z" fill="#E5ECF6"/>
<path fill-rule="evenodd" clip-rule="evenodd" d="M1019 85.9807C1032.24 85.9807 1042.98 75.2442 1042.98 62.0001C1042.98 48.756 1032.24 38.0195 1019 38.0195C1005.76 38.0195 995.019 48.756 995.019 62.0001C995.019 75.2442 1005.76 85.9807 1019 85.9807ZM1019 86.2331C1032.38 86.2331 1043.23 75.3836 1043.23 62.0001C1043.23 48.6166 1032.38 37.7671 1019 37.7671C1005.62 37.7671 994.767 48.6166 994.767 62.0001C994.767 75.3836 1005.62 86.2331 1019 86.2331Z" fill="#E5ECF6"/>
<path fill-rule="evenodd" clip-rule="evenodd" d="M1019 90.9027C1034.96 90.9027 1047.9 77.9625 1047.9 61.9998C1047.9 46.0372 1034.96 33.0969 1019 33.0969C1003.04 33.0969 990.097 46.0372 990.097 61.9998C990.097 77.9625 1003.04 90.9027 1019 90.9027ZM1019 91.1552C1035.1 91.1552 1048.16 78.1019 1048.16 61.9998C1048.16 45.8978 1035.1 32.8445 1019 32.8445C1002.9 32.8445 989.845 45.8978 989.845 61.9998C989.845 78.1019 1002.9 91.1552 1019 91.1552Z" fill="#E5ECF6"/>
<path fill-rule="evenodd" clip-rule="evenodd" d="M1019 96.2041C1037.89 96.2041 1053.2 80.8905 1053.2 62.0003C1053.2 43.11 1037.89 27.7964 1019 27.7964C1000.11 27.7964 984.796 43.11 984.796 62.0003C984.796 80.8905 1000.11 96.2041 1019 96.2041ZM1019 96.4566C1038.03 96.4566 1053.46 81.03 1053.46 62.0003C1053.46 42.9706 1038.03 27.5439 1019 27.5439C999.97 27.5439 984.544 42.9706 984.544 62.0003C984.544 81.03 999.97 96.4566 1019 96.4566Z" fill="#E5ECF6"/>
<path fill-rule="evenodd" clip-rule="evenodd" d="M1019 100.748C1040.4 100.748 1057.75 83.3997 1057.75 62C1057.75 40.6003 1040.4 23.2524 1019 23.2524C997.6 23.2524 980.252 40.6003 980.252 62C980.252 83.3997 997.6 100.748 1019 100.748ZM1019 101C1040.54 101 1058 83.5391 1058 62C1058 40.4609 1040.54 23 1019 23C997.461 23 980 40.4609 980 62C980 83.5391 997.461 101 1019 101Z" fill="#E5ECF6"/>
<path d="M1020.73 38.1905C1020.73 39.1213 1019.98 39.8759 1019.04 39.8759C1018.11 39.8759 1017.36 39.1213 1017.36 38.1905C1017.36 37.2597 1018.11 36.5051 1019.04 36.5051C1019.98 36.5051 1020.73 37.2597 1020.73 38.1905Z" fill="#1C1C1C"/>
<path fill-rule="evenodd" clip-rule="evenodd" d="M1019.04 39.6235C1019.84 39.6235 1020.48 38.9819 1020.48 38.1905C1020.48 37.3991 1019.84 36.7576 1019.04 36.7576C1018.25 36.7576 1017.61 37.3991 1017.61 38.1905C1017.61 38.9819 1018.25 39.6235 1019.04 39.6235ZM1019.04 39.8759C1019.98 39.8759 1020.73 39.1213 1020.73 38.1905C1020.73 37.2597 1019.98 36.5051 1019.04 36.5051C1018.11 36.5051 1017.36 37.2597 1017.36 38.1905C1017.36 39.1213 1018.11 39.8759 1019.04 39.8759Z" fill="#E5ECF6"/>
<path d="M1034.74 65.5784C1034.74 66.5092 1033.99 67.2638 1033.05 67.2638C1032.12 67.2638 1031.37 66.5092 1031.37 65.5784C1031.37 64.6476 1032.12 63.8931 1033.05 63.8931C1033.99 63.8931 1034.74 64.6476 1034.74 65.5784Z" fill="#1C1C1C"/>
<path fill-rule="evenodd" clip-rule="evenodd" d="M1033.05 67.0114C1033.85 67.0114 1034.49 66.3698 1034.49 65.5784C1034.49 64.787 1033.85 64.1455 1033.05 64.1455C1032.26 64.1455 1031.62 64.787 1031.62 65.5784C1031.62 66.3698 1032.26 67.0114 1033.05 67.0114ZM1033.05 67.2638C1033.99 67.2638 1034.74 66.5092 1034.74 65.5784C1034.74 64.6476 1033.99 63.8931 1033.05 63.8931C1032.12 63.8931 1031.37 64.6476 1031.37 65.5784C1031.37 66.5092 1032.12 67.2638 1033.05 67.2638Z" fill="#E5ECF6"/>
<path d="M991.575 61.0347C991.575 61.9655 990.82 62.7201 989.889 62.7201C988.958 62.7201 988.204 61.9655 988.204 61.0347C988.204 60.1039 988.958 59.3494 989.889 59.3494C990.82 59.3494 991.575 60.1039 991.575 61.0347Z" fill="#1C1C1C"/>
<path fill-rule="evenodd" clip-rule="evenodd" d="M989.889 62.4677C990.681 62.4677 991.322 61.8261 991.322 61.0347C991.322 60.2433 990.681 59.6018 989.889 59.6018C989.098 59.6018 988.456 60.2433 988.456 61.0347C988.456 61.8261 989.098 62.4677 989.889 62.4677ZM989.889 62.7201C990.82 62.7201 991.575 61.9655 991.575 61.0347C991.575 60.1039 990.82 59.3494 989.889 59.3494C988.958 59.3494 988.204 60.1039 988.204 61.0347C988.204 61.9655 988.958 62.7201 989.889 62.7201Z" fill="#E5ECF6"/>
<path d="M1054.18 69.7437C1054.18 70.6745 1053.42 71.4291 1052.49 71.4291C1051.56 71.4291 1050.81 70.6745 1050.81 69.7437C1050.81 68.8129 1051.56 68.0583 1052.49 68.0583C1053.42 68.0583 1054.18 68.8129 1054.18 69.7437Z" fill="#1C1C1C"/>
<path fill-rule="evenodd" clip-rule="evenodd" d="M1052.49 71.1767C1053.28 71.1767 1053.92 70.5351 1053.92 69.7437C1053.92 68.9523 1053.28 68.3108 1052.49 68.3108C1051.7 68.3108 1051.06 68.9523 1051.06 69.7437C1051.06 70.5351 1051.7 71.1767 1052.49 71.1767ZM1052.49 71.4291C1053.42 71.4291 1054.18 70.6745 1054.18 69.7437C1054.18 68.8129 1053.42 68.0583 1052.49 68.0583C1051.56 68.0583 1050.81 68.8129 1050.81 69.7437C1050.81 70.6745 1051.56 71.4291 1052.49 71.4291Z" fill="#E5ECF6"/>
<path d="M850.411 198.038C851.398 198.719 852.594 199.118 853.883 199.118C857.262 199.118 860.001 196.379 860.001 193C860.001 189.621 857.262 186.882 853.883 186.882C852.594 186.882 851.398 187.281 850.411 187.962C846.304 190.209 837.824 192.286 837.824 192.286L837.824 193.714C837.824 193.714 846.304 195.791 850.411 198.038Z" fill="#EB5A35"/>
<path d="M842.042 208.166C842.258 209.345 842.822 210.473 843.734 211.385C846.123 213.774 849.996 213.774 852.385 211.385C854.775 208.996 854.775 205.122 852.385 202.733C851.474 201.822 850.346 201.258 849.167 201.042C844.674 199.727 837.209 195.199 837.209 195.199L836.199 196.208C836.199 196.208 840.727 203.673 842.042 208.166Z" fill="#EB5A35"/>
<path d="M828.963 209.411C828.282 210.397 827.883 211.593 827.883 212.883C827.883 216.261 830.622 219 834 219C837.379 219 840.118 216.261 840.118 212.883C840.118 211.593 839.719 210.397 839.038 209.411C836.791 205.304 834.714 196.824 834.714 196.824L833.287 196.824C833.287 196.824 831.21 205.303 828.963 209.411Z" fill="#EB5A35"/>
<path d="M818.834 201.042C817.655 201.258 816.527 201.822 815.615 202.733C813.226 205.122 813.226 208.996 815.615 211.385C818.004 213.774 821.878 213.774 824.267 211.385C825.179 210.473 825.742 209.346 825.958 208.167C827.274 203.674 831.801 196.208 831.801 196.208L830.792 195.199C830.792 195.199 823.327 199.727 818.834 201.042Z" fill="#EB5A35"/>
<path d="M817.589 187.962C816.603 187.281 815.407 186.882 814.118 186.882C810.739 186.882 808 189.621 808 193C808 196.379 810.739 199.118 814.118 199.118C815.407 199.118 816.603 198.719 817.589 198.038C821.696 195.791 830.177 193.714 830.177 193.714L830.177 192.286C830.177 192.286 821.697 190.209 817.589 187.962Z" fill="#EB5A35"/>
<path d="M825.958 177.834C825.742 176.655 825.179 175.527 824.267 174.615C821.878 172.226 818.004 172.226 815.615 174.615C813.226 177.004 813.226 180.878 815.615 183.267C816.527 184.178 817.654 184.742 818.833 184.958C823.327 186.273 830.792 190.801 830.792 190.801L831.801 189.792C831.801 189.792 827.274 182.327 825.958 177.834Z" fill="#EB5A35"/>
<path d="M839.038 176.589C839.719 175.603 840.118 174.407 840.118 173.117C840.118 169.739 837.379 167 834 167C830.621 167 827.882 169.739 827.882 173.117C827.882 174.407 828.281 175.603 828.962 176.589C831.209 180.696 833.286 189.176 833.286 189.176L834.714 189.176C834.714 189.176 836.791 180.697 839.038 176.589Z" fill="#EB5A35"/>
<path d="M849.167 184.958C850.346 184.742 851.474 184.178 852.386 183.267C854.775 180.878 854.775 177.004 852.386 174.615C849.996 172.226 846.123 172.226 843.734 174.615C842.822 175.527 842.258 176.654 842.043 177.833C840.727 182.326 836.2 189.792 836.2 189.792L837.209 190.801C837.209 190.801 844.674 186.273 849.167 184.958Z" fill="#EB5A35"/>
<path d="M833.514 188.154C833.564 187.557 834.437 187.557 834.486 188.154C834.526 188.642 835.181 188.772 835.405 188.337C835.679 187.805 836.486 188.139 836.303 188.709C836.154 189.175 836.709 189.546 837.083 189.23C837.54 188.843 838.157 189.46 837.77 189.917C837.454 190.291 837.824 190.846 838.291 190.696C838.861 190.514 839.195 191.32 838.663 191.594C838.227 191.819 838.358 192.473 838.846 192.514C839.442 192.563 839.442 193.436 838.846 193.486C838.358 193.526 838.227 194.181 838.663 194.405C839.195 194.679 838.861 195.486 838.291 195.303C837.824 195.154 837.454 195.709 837.77 196.083C838.157 196.539 837.54 197.157 837.083 196.77C836.709 196.453 836.154 196.824 836.303 197.291C836.486 197.861 835.679 198.195 835.405 197.663C835.181 197.227 834.526 197.357 834.486 197.846C834.437 198.442 833.564 198.442 833.514 197.846C833.474 197.357 832.819 197.227 832.595 197.663C832.321 198.195 831.514 197.861 831.697 197.291C831.846 196.824 831.291 196.453 830.917 196.77C830.46 197.157 829.843 196.539 830.23 196.083C830.546 195.709 830.176 195.154 829.709 195.303C829.139 195.486 828.805 194.679 829.337 194.405C829.773 194.181 829.642 193.526 829.154 193.486C828.558 193.436 828.558 192.563 829.154 192.514C829.642 192.473 829.773 191.819 829.337 191.594C828.805 191.32 829.139 190.514 829.709 190.696C830.176 190.846 830.546 190.291 830.23 189.917C829.843 189.46 830.46 188.843 830.917 189.23C831.291 189.546 831.846 189.175 831.697 188.709C831.514 188.139 832.321 187.805 832.595 188.337C832.819 188.772 833.474 188.642 833.514 188.154Z" fill="#F4B442"/>
<path fill-rule="evenodd" clip-rule="evenodd" d="M834.192 192.038L836.896 185.508L837.249 185.655L834.544 192.185L839.543 187.187L839.813 187.457L834.815 192.455L841.345 189.75L841.492 190.104L834.961 192.809L842.03 192.809V193.191H834.961L841.492 195.896L841.345 196.249L834.815 193.544L839.813 198.542L839.543 198.813L834.544 193.814L837.249 200.345L836.896 200.491L834.191 193.961V201.029H833.809V193.961L831.104 200.491L830.751 200.345L833.456 193.815L828.458 198.813L828.187 198.542L833.185 193.544L826.655 196.249L826.509 195.896L833.039 193.191L825.971 193.191L825.971 192.809L833.039 192.809L826.509 190.104L826.655 189.75L833.186 192.455L828.188 187.457L828.458 187.187L833.456 192.185L830.751 185.655L831.105 185.508L833.809 192.038V184.97H834.192V192.038Z" fill="#DC8433"/>
<path d="M840.489 188.133C840.041 188.581 839.315 188.581 838.867 188.133C838.419 187.685 838.419 186.959 838.867 186.511C839.315 186.063 840.041 186.063 840.489 186.511C840.937 186.959 840.937 187.685 840.489 188.133Z" fill="#F4B442"/>
<path d="M841.858 190.987C841.272 191.229 840.601 190.951 840.359 190.366C840.116 189.781 840.394 189.11 840.98 188.867C841.565 188.625 842.236 188.903 842.478 189.488C842.721 190.073 842.443 190.744 841.858 190.987Z" fill="#F4B442"/>
<path d="M842.03 194.147C841.396 194.147 840.883 193.633 840.883 193C840.883 192.366 841.396 191.853 842.03 191.853C842.663 191.853 843.177 192.366 843.177 193C843.177 193.633 842.663 194.147 842.03 194.147Z" fill="#F4B442"/>
<path d="M840.98 197.132C840.394 196.89 840.116 196.219 840.359 195.634C840.601 195.048 841.272 194.77 841.858 195.013C842.443 195.255 842.721 195.926 842.478 196.512C842.236 197.097 841.565 197.375 840.98 197.132Z" fill="#F4B442"/>
<path d="M838.867 199.489C838.419 199.041 838.419 198.314 838.867 197.866C839.315 197.418 840.041 197.418 840.489 197.866C840.937 198.314 840.937 199.041 840.489 199.489C840.041 199.937 839.315 199.937 838.867 199.489Z" fill="#F4B442"/>
<path d="M836.013 200.857C835.771 200.272 836.049 199.601 836.634 199.358C837.219 199.116 837.89 199.394 838.133 199.979C838.375 200.564 838.097 201.235 837.512 201.478C836.927 201.72 836.256 201.442 836.013 200.857Z" fill="#F4B442"/>
<path d="M832.853 201.029C832.853 200.396 833.367 199.882 834 199.882C834.634 199.882 835.147 200.396 835.147 201.029C835.147 201.663 834.634 202.176 834 202.176C833.367 202.176 832.853 201.663 832.853 201.029Z" fill="#F4B442"/>
<path d="M829.868 199.979C830.11 199.394 830.781 199.116 831.367 199.358C831.952 199.601 832.23 200.272 831.987 200.857C831.745 201.442 831.074 201.72 830.489 201.478C829.903 201.235 829.626 200.564 829.868 199.979Z" fill="#F4B442"/>
<path d="M827.512 197.866C827.96 197.418 828.686 197.418 829.134 197.866C829.582 198.314 829.582 199.041 829.134 199.489C828.686 199.937 827.96 199.937 827.512 199.489C827.064 199.041 827.064 198.314 827.512 197.866Z" fill="#F4B442"/>
<path d="M826.143 195.013C826.728 194.77 827.399 195.048 827.642 195.634C827.884 196.219 827.606 196.89 827.021 197.132C826.436 197.375 825.765 197.097 825.522 196.512C825.28 195.926 825.558 195.255 826.143 195.013Z" fill="#F4B442"/>
<path d="M825.971 191.853C826.604 191.853 827.118 192.366 827.118 193C827.118 193.633 826.604 194.147 825.971 194.147C825.337 194.147 824.824 193.633 824.824 193C824.824 192.366 825.337 191.853 825.971 191.853Z" fill="#F4B442"/>
<path d="M827.021 188.867C827.606 189.11 827.884 189.781 827.642 190.366C827.4 190.951 826.729 191.229 826.143 190.987C825.558 190.744 825.28 190.073 825.522 189.488C825.765 188.903 826.436 188.625 827.021 188.867Z" fill="#F4B442"/>
<path d="M829.134 186.511C829.582 186.959 829.582 187.685 829.134 188.133C828.686 188.581 827.96 188.581 827.512 188.133C827.064 187.685 827.064 186.959 827.512 186.511C827.96 186.063 828.686 186.063 829.134 186.511Z" fill="#F4B442"/>
<path d="M831.988 185.143C832.23 185.728 831.952 186.399 831.367 186.641C830.782 186.884 830.111 186.606 829.868 186.02C829.626 185.435 829.904 184.764 830.489 184.522C831.074 184.279 831.745 184.557 831.988 185.143Z" fill="#F4B442"/>
<path d="M835.148 184.97C835.148 185.604 834.634 186.117 834.001 186.117C833.367 186.117 832.854 185.604 832.854 184.97C832.854 184.337 833.367 183.823 834.001 183.823C834.634 183.823 835.148 184.337 835.148 184.97Z" fill="#F4B442"/>
<path d="M838.132 186.02C837.89 186.606 837.219 186.884 836.634 186.641C836.048 186.399 835.771 185.728 836.013 185.143C836.255 184.557 836.926 184.279 837.512 184.522C838.097 184.764 838.375 185.435 838.132 186.02Z" fill="#F4B442"/>
<path fill-rule="evenodd" clip-rule="evenodd" d="M263 198.938L263 198.938V198.938L263 198.938L263 198.938V198.939L263 198.938L263 198.939V198.938C263.01 198.908 263.02 198.878 263.03 198.847C263.028 198.879 263.026 198.911 263.023 198.943L263.023 198.943L263.023 198.943L263.023 198.943L263.023 198.943L263.024 198.942C263.024 198.942 263.024 198.943 263.024 198.943L263.024 198.943L263.024 198.943C263.024 198.943 263.024 198.943 263.024 198.943L263.024 198.943L263.027 198.939C263.047 198.916 263.067 198.893 263.087 198.87C263.072 198.899 263.058 198.928 263.043 198.956L263.043 198.957L263.043 198.956L263.043 198.957L263.043 198.956L263.044 198.956L263.044 198.956L263.044 198.956L263.044 198.956L263.044 198.956L263.044 198.956L263.046 198.955C263.074 198.941 263.102 198.927 263.129 198.913C263.115 198.926 263.1 198.938 263.086 198.951L263.057 198.976L263.056 198.976L263.056 198.976L263.056 198.976L263.057 198.976L263.057 198.976L263.057 198.976C263.089 198.974 263.121 198.972 263.153 198.969C263.123 198.979 263.092 198.99 263.062 199H263.062L263.062 199L263.062 199H263.061L263.062 199L263.061 199H263.062C263.092 199.01 263.123 199.02 263.153 199.03C263.121 199.028 263.089 199.026 263.057 199.023L263.057 199.023L263.057 199.023L263.057 199.023L263.057 199.023L263.057 199.023L263.057 199.023L263.056 199.023L263.057 199.024C263.081 199.045 263.105 199.066 263.13 199.087L263.105 199.074C263.085 199.064 263.065 199.054 263.045 199.044L263.044 199.044L263.044 199.043L263.044 199.043L263.043 199.043L263.044 199.044L263.044 199.044L263.043 199.043L263.043 199.043L263.043 199.043L263.043 199.043L263.043 199.043C263.058 199.072 263.072 199.101 263.087 199.13C263.066 199.107 263.046 199.083 263.026 199.06L263.024 199.057L263.023 199.057L263.024 199.057L263.023 199.057L263.024 199.057L263.024 199.057L263.023 199.057L263.023 199.057L263.023 199.057L263.023 199.057L263.023 199.057C263.025 199.089 263.028 199.121 263.03 199.153C263.02 199.124 263.011 199.095 263.001 199.066L263 199.062V199.061L263 199.061L263 199.061V199.062L263 199.062L263 199.061V199.061L263 199.061L262.999 199.061V199.061L262.986 199.101C262.981 199.117 262.976 199.133 262.97 199.15C262.973 199.119 262.975 199.088 262.977 199.057L262.977 199.057L262.977 199.057L262.977 199.056L262.977 199.057L262.976 199.058L262.976 199.057L262.976 199.057L262.976 199.057L262.976 199.057L262.976 199.057L262.974 199.06C262.954 199.083 262.934 199.107 262.914 199.13C262.928 199.101 262.943 199.072 262.957 199.043L262.957 199.043L262.957 199.043L262.957 199.043L262.957 199.043L262.956 199.044L262.956 199.044L262.956 199.043L262.956 199.043L262.956 199.043L262.956 199.044L262.954 199.045C262.926 199.059 262.898 199.073 262.87 199.087C262.894 199.066 262.919 199.045 262.943 199.023L262.944 199.023L262.943 199.023L262.944 199.023L262.943 199.023L262.943 199.023L262.943 199.023C262.911 199.026 262.879 199.028 262.847 199.03L262.873 199.022C262.887 199.017 262.901 199.012 262.915 199.008L262.938 199H262.939L262.938 199L262.939 199H262.939L262.939 199L262.939 199H262.939C262.923 198.994 262.907 198.989 262.891 198.984C262.876 198.979 262.862 198.974 262.847 198.969C262.862 198.97 262.876 198.971 262.891 198.973C262.908 198.974 262.925 198.975 262.942 198.976L262.943 198.976L262.943 198.976L262.943 198.976L262.943 198.976L262.943 198.976L262.943 198.976L262.943 198.976L262.943 198.976L262.943 198.976L262.943 198.976C262.919 198.955 262.895 198.934 262.87 198.913C262.898 198.927 262.927 198.941 262.955 198.955L262.956 198.956L262.956 198.956L262.956 198.956L262.956 198.956L262.956 198.956L262.956 198.956L262.957 198.956L262.957 198.956L262.957 198.956L262.957 198.956L262.957 198.956C262.942 198.928 262.928 198.899 262.914 198.87C262.934 198.894 262.954 198.917 262.974 198.94L262.976 198.943L262.976 198.943L262.976 198.943L262.976 198.943L262.976 198.943L262.976 198.942L262.976 198.943L262.976 198.943L262.976 198.943L262.977 198.943L262.976 198.943C262.974 198.911 262.972 198.879 262.97 198.847C262.979 198.876 262.989 198.905 262.999 198.934L263 198.938V198.938L263 198.938ZM270.654 180.523C270.434 183.694 269.325 187.116 267.959 190.21C267.399 191.651 266.754 193.103 266.018 194.483C267.016 193.27 268.115 192.112 269.238 191.04C271.57 188.6 274.301 186.273 277.14 184.859L277.142 184.858L277.142 184.858L277.142 184.858L277.142 184.858L277.142 184.858L277.142 184.858L277.142 184.858L277.143 184.858L277.143 184.858L277.143 184.858L277.142 184.858C275.726 187.703 273.392 190.439 270.948 192.774C269.878 193.893 268.726 194.988 267.517 195.982C268.901 195.244 270.358 194.596 271.804 194.035C274.894 192.672 278.311 191.566 281.477 191.346L281.477 191.346L281.478 191.346L281.478 191.346L281.478 191.346L281.478 191.346L281.478 191.346C279.082 193.431 275.881 195.065 272.73 196.287C271.313 196.912 269.827 197.484 268.327 197.94C269.888 197.788 271.48 197.747 273.029 197.782C276.407 197.705 279.989 197.99 283 199H283L283 199L283 199H283L283 199L283 199H283C279.99 200.009 276.41 200.294 273.033 200.217C271.482 200.253 269.889 200.212 268.328 200.06C269.827 200.516 271.313 201.087 272.73 201.712C275.881 202.934 279.082 204.568 281.477 206.653L281.478 206.653L281.478 206.653L281.478 206.654L281.477 206.654L281.477 206.653L281.477 206.654L281.477 206.653L281.477 206.653C278.311 206.434 274.894 205.327 271.804 203.965C270.358 203.404 268.901 202.756 267.517 202.018C268.726 203.013 269.88 204.108 270.95 205.228C273.394 207.562 275.727 210.298 277.142 213.142L277.142 213.142L277.142 213.142L277.142 213.142L277.142 213.142L277.142 213.142L277.142 213.142L277.142 213.142L277.142 213.142L277.142 213.142L277.14 213.141C274.3 211.727 271.569 209.398 269.236 206.958C268.113 205.885 267.015 204.729 266.017 203.516C266.754 204.897 267.4 206.35 267.96 207.793C269.325 210.886 270.434 214.307 270.654 217.477L270.654 217.477L270.654 217.477L270.654 217.478L270.653 217.477L270.653 217.477L270.653 217.477L270.653 217.477L270.653 217.477L270.653 217.477L270.653 217.477L270.651 217.475C268.57 215.082 266.938 211.887 265.717 208.741C265.09 207.321 264.517 205.831 264.059 204.328C264.211 205.885 264.252 207.474 264.217 209.021C264.295 212.401 264.01 215.987 263 219V219L263 219L263 219V219L263 218.999L263 218.999V219L263 219L262.999 219V218.999L262.999 218.995C261.991 215.989 261.706 212.414 261.782 209.04C261.747 207.489 261.787 205.895 261.939 204.332C261.482 205.835 260.909 207.324 260.282 208.744C259.061 211.889 257.43 215.082 255.349 217.474L255.347 217.477L255.347 217.477L255.347 217.477L255.347 217.477L255.347 217.477L255.347 217.476L255.346 217.477L255.346 217.478L255.346 217.477L255.346 217.478L255.346 217.477C255.566 214.306 256.676 210.884 258.041 207.79C258.601 206.348 259.247 204.897 259.982 203.517C258.984 204.73 257.885 205.887 256.762 206.96C254.43 209.399 251.699 211.727 248.86 213.141L248.859 213.142L248.858 213.142L248.858 213.142L248.858 213.142L248.859 213.142L248.859 213.141L248.858 213.142L248.858 213.142L248.858 213.142L248.858 213.142L248.858 213.142C250.274 210.297 252.608 207.561 255.053 205.225C256.122 204.107 257.275 203.012 258.484 202.017C257.099 202.756 255.642 203.404 254.196 203.964C251.106 205.327 247.689 206.434 244.523 206.653L244.523 206.653L244.522 206.653L244.522 206.654L244.522 206.654L244.522 206.654L244.522 206.653C246.918 204.568 250.119 202.934 253.27 201.712C254.687 201.087 256.173 200.516 257.672 200.06C256.112 200.212 254.52 200.253 252.971 200.217C249.593 200.294 246.011 200.01 243 199H243L243 199L243 199H243L243 199L243 199H243.001C246.01 197.991 249.591 197.706 252.968 197.782C254.518 197.747 256.111 197.788 257.672 197.94C256.173 197.484 254.687 196.912 253.27 196.287C250.119 195.066 246.918 193.431 244.522 191.346L244.522 191.346L244.522 191.346L244.522 191.346L244.523 191.346L244.523 191.346L244.522 191.346L244.523 191.346L244.522 191.346L244.523 191.346L244.523 191.346C247.689 191.566 251.106 192.672 254.196 194.035C255.642 194.596 257.099 195.244 258.483 195.982C257.274 194.987 256.12 193.891 255.05 192.772C252.606 190.437 250.273 187.702 248.858 184.858L248.858 184.858L248.858 184.858L248.858 184.858L248.858 184.858L248.858 184.858L248.858 184.858L248.858 184.858L248.858 184.858L248.858 184.858L248.858 184.858L248.86 184.859C251.7 186.273 254.431 188.601 256.764 191.042C257.886 192.114 258.985 193.27 259.982 194.482C259.245 193.102 258.599 191.649 258.04 190.207C256.675 187.114 255.565 183.693 255.346 180.523L255.346 180.522L255.346 180.522L255.346 180.522L255.346 180.522L255.347 180.523L255.346 180.523L255.346 180.522L255.346 180.522L255.346 180.522L255.347 180.523L255.348 180.525C257.43 182.917 259.062 186.112 260.283 189.258C260.91 190.679 261.483 192.169 261.94 193.672C261.788 192.115 261.747 190.526 261.782 188.979C261.705 185.599 261.989 182.013 263 179V179L263 179L263 179V179L263 179.001L263 179V179L263 179L263 179V179L263.001 179.004C264.008 182.01 264.293 185.586 264.217 188.959C264.253 190.512 264.212 192.107 264.06 193.671C264.518 192.167 265.091 190.677 265.718 189.256C266.939 186.111 268.57 182.918 270.651 180.526C270.652 180.525 270.652 180.524 270.653 180.523L270.653 180.522L270.653 180.522L270.654 180.522L270.653 180.523L270.653 180.523C270.654 180.523 270.654 180.523 270.654 180.522L270.654 180.522C270.654 180.522 270.654 180.522 270.654 180.522C270.654 180.522 270.654 180.522 270.654 180.522L270.654 180.523Z" fill="white"/>
<path d="M262.672 195.731C262.706 195.329 263.295 195.329 263.328 195.731C263.355 196.06 263.797 196.148 263.948 195.854C264.133 195.495 264.677 195.721 264.554 196.105C264.453 196.42 264.828 196.67 265.08 196.457C265.388 196.196 265.804 196.612 265.544 196.92C265.33 197.173 265.58 197.547 265.895 197.446C266.279 197.323 266.505 197.867 266.146 198.052C265.852 198.203 265.94 198.645 266.269 198.672C266.672 198.706 266.672 199.294 266.269 199.328C265.94 199.355 265.852 199.797 266.146 199.948C266.505 200.133 266.279 200.677 265.895 200.554C265.58 200.453 265.33 200.827 265.544 201.08C265.804 201.388 265.388 201.804 265.08 201.543C264.828 201.33 264.453 201.58 264.554 201.895C264.677 202.279 264.133 202.505 263.948 202.146C263.797 201.852 263.355 201.94 263.328 202.269C263.295 202.671 262.706 202.671 262.672 202.269C262.645 201.94 262.203 201.852 262.052 202.146C261.867 202.505 261.323 202.279 261.446 201.895C261.547 201.58 261.173 201.33 260.92 201.543C260.612 201.804 260.196 201.388 260.457 201.08C260.67 200.827 260.42 200.453 260.105 200.554C259.721 200.677 259.496 200.133 259.854 199.948C260.148 199.797 260.061 199.355 259.731 199.328C259.329 199.294 259.329 198.706 259.731 198.672C260.061 198.645 260.148 198.203 259.854 198.052C259.496 197.867 259.721 197.323 260.105 197.446C260.42 197.547 260.67 197.173 260.457 196.92C260.196 196.612 260.612 196.196 260.92 196.457C261.173 196.67 261.547 196.42 261.446 196.105C261.323 195.721 261.867 195.495 262.052 195.854C262.203 196.148 262.645 196.06 262.672 195.731Z" fill="#F4B542"/>
<path d="M790.028 -5C773.687 21.8668 752.79 80.6066 799.927 100.632C851.215 122.42 888.574 89.5883 954.904 155" stroke="url(#paint4_linear_27322_65084)" stroke-opacity="0.4" stroke-width="0.5"/>
<path d="M953.5 130L955.407 136.654C957.892 145.327 964.672 152.107 973.345 154.593L980 156.5L973.345 158.407C964.672 160.892 957.892 167.672 955.407 176.345L953.5 183L951.593 176.345C949.108 167.672 942.328 160.892 933.655 158.407L927 156.5L933.655 154.593C942.328 152.107 949.108 145.327 951.593 136.654L953.5 130Z" fill="#7881FF"/>
<path d="M1161 191.244C1131.93 228.791 1056.35 281.357 986.591 191.244C975.292 176.65 964.777 164.737 954.904 155" stroke="url(#paint5_linear_27322_65084)" stroke-opacity="0.4" stroke-width="0.5"/>
<path d="M871.75 62C871.75 70.8145 870.41 78.7834 868.251 84.5396C867.172 87.4187 865.892 89.7312 864.484 91.3194C863.075 92.908 861.56 93.75 860 93.75C858.44 93.75 856.925 92.908 855.516 91.3194C854.108 89.7312 852.828 87.4187 851.749 84.5396C849.59 78.7834 848.25 70.8145 848.25 62C848.25 53.1855 849.59 45.2166 851.749 39.4604C852.828 36.5813 854.108 34.2688 855.516 32.6806C856.925 31.092 858.44 30.25 860 30.25C861.56 30.25 863.075 31.092 864.484 32.6806C865.892 34.2688 867.172 36.5813 868.251 39.4604C870.41 45.2166 871.75 53.1855 871.75 62Z" stroke="url(#paint6_linear_27322_65084)" stroke-width="0.5"/>
<path d="M860 50.25C868.815 50.25 876.783 51.5902 882.54 53.7488C885.419 54.8284 887.731 56.108 889.319 57.5161C890.908 58.9245 891.75 60.4403 891.75 62C891.75 63.5597 890.908 65.0755 889.319 66.4839C887.731 67.892 885.419 69.1716 882.54 70.2512C876.783 72.4098 868.815 73.75 860 73.75C851.185 73.75 843.217 72.4098 837.46 70.2512C834.581 69.1716 832.269 67.892 830.681 66.4839C829.092 65.0755 828.25 63.5597 828.25 62C828.25 60.4403 829.092 58.9245 830.681 57.5161C832.269 56.108 834.581 54.8284 837.46 53.7488C843.217 51.5902 851.185 50.25 860 50.25Z" stroke="url(#paint7_linear_27322_65084)" stroke-width="0.5"/>
<path d="M868.309 53.6915C874.541 59.9243 879.229 66.5069 881.772 72.1035C883.045 74.9027 883.775 77.4426 883.903 79.5614C884.03 81.6806 883.554 83.3478 882.451 84.4507C881.348 85.5535 879.681 86.03 877.561 85.9026C875.443 85.7752 872.903 85.0448 870.103 83.7724C864.507 81.2285 857.924 76.5413 851.691 70.3085C845.459 64.0757 840.772 57.4932 838.228 51.8966C836.955 49.0974 836.225 46.5574 836.097 44.4386C835.97 42.3195 836.447 40.6523 837.549 39.5494C838.652 38.4465 840.319 37.9701 842.439 38.0975C844.557 38.2248 847.097 38.9553 849.897 40.2276C855.493 42.7715 862.076 47.4587 868.309 53.6915Z" stroke="url(#paint8_linear_27322_65084)" stroke-width="0.5"/>
<path d="M837.549 84.4507C836.447 83.3478 835.97 81.6806 836.097 79.5614C836.225 77.4426 836.955 74.9027 838.228 72.1035C840.772 66.5069 845.459 59.9243 851.692 53.6915C857.924 47.4587 864.507 42.7715 870.103 40.2276C872.903 38.9553 875.443 38.2248 877.561 38.0975C879.681 37.9701 881.348 38.4465 882.451 39.5494C883.554 40.6523 884.03 42.3195 883.903 44.4386C883.775 46.5574 883.045 49.0974 881.772 51.8966C879.229 57.4932 874.541 64.0757 868.309 70.3085C862.076 76.5413 855.493 81.2285 849.897 83.7724C847.097 85.0448 844.557 85.7752 842.439 85.9026C840.319 86.03 838.652 85.5535 837.549 84.4507Z" stroke="url(#paint9_linear_27322_65084)" stroke-width="0.5"/>
<path d="M16 48.9998L17.1514 53.0176C18.652 58.2542 22.7455 62.3477 27.9821 63.8484L32 64.9998L27.9821 66.1512C22.7455 67.6518 18.652 71.7453 17.1514 76.9819L16 80.9998L14.8486 76.9819C13.348 71.7453 9.25447 67.6518 4.01789 66.1512L0 64.9998L4.01788 63.8484C9.25447 62.3477 13.348 58.2542 14.8486 53.0176L16 48.9998Z" fill="#09C581"/>
<path fill-rule="evenodd" clip-rule="evenodd" d="M56.2189 159L57.5 121L58.7811 159L73.6441 124.031L61.1701 159.929L87.6079 132.714L63.0636 161.663L97.5054 145.876L64.2056 163.966L102 161.741L64.442 166.528L100.485 178.165L63.7408 169.003L93.1639 192.93L62.1968 171.056L81.0266 204.042L60.0185 172.411L65.7119 210L57.5 172.884L49.2881 210L54.9815 172.411L33.9734 204.042L52.8032 171.056L21.8361 192.93L51.2592 169.003L14.5154 178.165L50.558 166.528L13 161.741L50.7944 163.966L17.4946 145.876L51.9364 161.663L27.3921 132.714L53.8299 159.929L41.3559 124.031L56.2189 159ZM55.2546 160.061L53.3124 161.269L51.9357 163.1L51.3106 165.306L51.5214 167.59L52.5396 169.644L54.2277 171.19L56.3578 172.018H58.6422L60.7723 171.19L62.4604 169.644L63.4786 167.59L63.6894 165.306L63.0643 163.1L61.6876 161.269L59.7454 160.061L57.5 159.64L55.2546 160.061Z" fill="#F7F9FB"/>
<line x1="149" y1="219.426" x2="191.426" y2="177" stroke="#5A9CFF" stroke-width="6" stroke-linecap="round"/>
<path fill-rule="evenodd" clip-rule="evenodd" d="M171.865 64.6752C171.865 66.6932 172.534 68.555 173.662 70.0509H173.662C173.662 70.0509 174.281 71.1789 175.155 72.7294C173.932 71.3678 173.03 70.3873 173.03 70.3873L173.018 70.4263C171.944 68.8909 170.38 67.6794 168.46 67.0558C163.767 65.5308 160.314 69.7575 161.048 74.0426C157.918 77.1303 158.245 82.5272 162.938 84.0522C164.857 84.6758 166.835 84.6149 168.606 84.004L168.606 84.0044C168.606 84.0044 169.87 83.764 171.614 83.4119C169.941 84.1546 168.731 84.7085 168.731 84.7085L168.764 84.7326C166.972 85.2796 165.336 86.3926 164.15 88.0253C161.25 92.0177 164.202 96.6082 168.504 97.2343C170.474 101.165 175.708 102.522 178.608 98.5296C179.794 96.897 180.348 94.9976 180.314 93.1242L180.314 93.1244C180.314 93.1244 180.476 91.8474 180.681 90.0789C180.87 91.8999 181.023 93.2231 181.023 93.2231L181.056 93.199C181.023 95.0724 181.576 96.9719 182.762 98.6045C185.663 102.597 190.941 101.207 192.866 97.3092C197.213 96.6507 200.121 92.0926 197.22 88.1001C196.034 86.4675 194.398 85.3545 192.606 84.8075L192.606 84.8073C192.606 84.8073 191.443 84.2589 189.824 83.5184C191.614 83.9007 192.92 84.1641 192.92 84.1641L192.907 84.1251C194.678 84.736 196.656 84.7969 198.575 84.1733C203.268 82.6483 203.578 77.1989 200.465 74.1637C201.182 69.8261 197.746 65.6519 193.053 67.1769C191.133 67.8005 189.569 69.012 188.495 70.5474L188.495 70.547C188.495 70.547 187.614 71.4849 186.409 72.7956C187.326 71.2111 187.98 70.0509 187.98 70.0509H187.939C189.067 68.555 189.736 66.6932 189.736 64.6751C189.736 59.7402 184.649 57.762 180.8 59.7842C176.897 57.7619 171.865 59.7402 171.865 64.6752Z" fill="#742FAB"/>
<path d="M179.643 74.3418C179.798 73.1494 181.524 73.1494 181.678 74.3418C181.79 75.1999 182.848 75.5436 183.442 74.9149C184.268 74.0411 185.665 75.0558 185.089 76.1114C184.675 76.871 185.329 77.7709 186.179 77.6116C187.361 77.3903 187.894 79.0321 186.808 79.5477C186.026 79.9187 186.026 81.0311 186.808 81.4021C187.894 81.9177 187.361 83.5595 186.179 83.3381C185.329 83.1788 184.675 84.0787 185.089 84.8383C185.665 85.8939 184.268 86.9086 183.442 86.0348C182.848 85.4061 181.79 85.7498 181.678 86.6079C181.524 87.8003 179.798 87.8003 179.643 86.6079C179.532 85.7498 178.474 85.4061 177.879 86.0348C177.053 86.9086 175.657 85.8939 176.232 84.8383C176.647 84.0787 175.993 83.1788 175.142 83.3381C173.96 83.5595 173.427 81.9177 174.513 81.4021C175.295 81.0311 175.295 79.9187 174.513 79.5477C173.427 79.0321 173.96 77.3903 175.142 77.6116C175.993 77.7709 176.647 76.871 176.232 76.1114C175.657 75.0558 177.053 74.0411 177.879 74.9149C178.474 75.5436 179.532 75.1999 179.643 74.3418Z" fill="#EED2F8"/>
<defs>
<filter id="filter0_ii_27322_65084" x="336.182" y="-13.24" width="831.45" height="540.595" filterUnits="userSpaceOnUse" color-interpolation-filters="sRGB">
<feFlood flood-opacity="0" result="BackgroundImageFix"/>
<feBlend mode="normal" in="SourceGraphic" in2="BackgroundImageFix" result="shape"/>
<feColorMatrix in="SourceAlpha" type="matrix" values="0 0 0 0 0 0 0 0 0 0 0 0 0 0 0 0 0 0 127 0" result="hardAlpha"/>
<feOffset dx="-18.3516" dy="32.1153"/>
<feGaussianBlur stdDeviation="38.9971"/>
<feComposite in2="hardAlpha" operator="arithmetic" k2="-1" k3="1"/>
<feColorMatrix type="matrix" values="0 0 0 0 1 0 0 0 0 1 0 0 0 0 1 0 0 0 0.87 0"/>
<feBlend mode="lighten" in2="shape" result="effect1_innerShadow_27322_65084"/>
<feColorMatrix in="SourceAlpha" type="matrix" values="0 0 0 0 0 0 0 0 0 0 0 0 0 0 0 0 0 0 127 0" result="hardAlpha"/>
<feOffset dx="26.3494" dy="15.3705"/>
<feGaussianBlur stdDeviation="15.3705"/>
<feComposite in2="hardAlpha" operator="arithmetic" k2="-1" k3="1"/>
<feColorMatrix type="matrix" values="0 0 0 0 0.168627 0 0 0 0 0.180392 0 0 0 0 0.239216 0 0 0 0.9 0"/>
<feBlend mode="multiply" in2="effect1_innerShadow_27322_65084" result="effect2_innerShadow_27322_65084"/>
</filter>
<filter id="filter1_ii_27322_65084" x="336.182" y="-13.24" width="831.634" height="540.595" filterUnits="userSpaceOnUse" color-interpolation-filters="sRGB">
<feFlood flood-opacity="0" result="BackgroundImageFix"/>
<feBlend mode="normal" in="SourceGraphic" in2="BackgroundImageFix" result="shape"/>
<feColorMatrix in="SourceAlpha" type="matrix" values="0 0 0 0 0 0 0 0 0 0 0 0 0 0 0 0 0 0 127 0" result="hardAlpha"/>
<feOffset dx="-18.3516" dy="32.1153"/>
<feGaussianBlur stdDeviation="38.9971"/>
<feComposite in2="hardAlpha" operator="arithmetic" k2="-1" k3="1"/>
<feColorMatrix type="matrix" values="0 0 0 0 1 0 0 0 0 1 0 0 0 0 1 0 0 0 0.87 0"/>
<feBlend mode="lighten" in2="shape" result="effect1_innerShadow_27322_65084"/>
<feColorMatrix in="SourceAlpha" type="matrix" values="0 0 0 0 0 0 0 0 0 0 0 0 0 0 0 0 0 0 127 0" result="hardAlpha"/>
<feOffset dx="26.3494" dy="15.3705"/>
<feGaussianBlur stdDeviation="15.3705"/>
<feComposite in2="hardAlpha" operator="arithmetic" k2="-1" k3="1"/>
<feColorMatrix type="matrix" values="0 0 0 0 0.168627 0 0 0 0 0.180392 0 0 0 0 0.239216 0 0 0 0.9 0"/>
<feBlend mode="multiply" in2="effect1_innerShadow_27322_65084" result="effect2_innerShadow_27322_65084"/>
</filter>
<linearGradient id="paint0_linear_27322_65084" x1="1097.6" y1="-70.1902" x2="727.792" y2="69.0561" gradientUnits="userSpaceOnUse">
<stop offset="0.416991" stop-opacity="0"/>
<stop offset="1"/>
</linearGradient>
<radialGradient id="paint1_radial_27322_65084" cx="0" cy="0" r="1" gradientUnits="userSpaceOnUse" gradientTransform="translate(290.322 322.927) rotate(-1.71521) scale(297.924 501.205)">
<stop stop-color="#949494"/>
<stop offset="0.635171" stop-color="#181818"/>
<stop offset="1" stop-color="#1D1D1D"/>
</radialGradient>
<linearGradient id="paint2_linear_27322_65084" x1="300.053" y1="323.729" x2="1017.5" y2="53.519" gradientUnits="userSpaceOnUse">
<stop offset="0.137931" stop-opacity="0"/>
<stop offset="1"/>
</linearGradient>
<radialGradient id="paint3_radial_27322_65084" cx="0" cy="0" r="1" gradientUnits="userSpaceOnUse" gradientTransform="translate(290.307 322.927) rotate(-1.71481) scale(297.994 501.205)">
<stop stop-color="#949494"/>
<stop offset="0.635171" stop-color="#181818"/>
<stop offset="1" stop-color="#1D1D1D"/>
</radialGradient>
<linearGradient id="paint4_linear_27322_65084" x1="946" y1="127.5" x2="787.5" y2="92.5" gradientUnits="userSpaceOnUse">
<stop stop-color="white"/>
<stop offset="1" stop-color="white" stop-opacity="0"/>
</linearGradient>
<linearGradient id="paint5_linear_27322_65084" x1="972" y1="163.5" x2="1127" y2="248" gradientUnits="userSpaceOnUse">
<stop stop-color="white"/>
<stop offset="1" stop-color="white" stop-opacity="0"/>
</linearGradient>
<linearGradient id="paint6_linear_27322_65084" x1="860" y1="30" x2="860" y2="94" gradientUnits="userSpaceOnUse">
<stop stop-color="white"/>
<stop offset="1" stop-color="white" stop-opacity="0"/>
</linearGradient>
<linearGradient id="paint7_linear_27322_65084" x1="828" y1="62" x2="892" y2="62" gradientUnits="userSpaceOnUse">
<stop stop-color="white"/>
<stop offset="1" stop-color="white" stop-opacity="0"/>
</linearGradient>
<linearGradient id="paint8_linear_27322_65084" x1="837.373" y1="39.3726" x2="882.627" y2="84.6275" gradientUnits="userSpaceOnUse">
<stop stop-color="white"/>
<stop offset="1" stop-color="white" stop-opacity="0"/>
</linearGradient>
<linearGradient id="paint9_linear_27322_65084" x1="882.628" y1="39.3726" x2="837.373" y2="84.6275" gradientUnits="userSpaceOnUse">
<stop stop-color="white"/>
<stop offset="1" stop-color="white" stop-opacity="0"/>
</linearGradient>
</defs>
</svg>
