<svg width="131" height="40" viewBox="0 0 131 40" fill="none" xmlns="http://www.w3.org/2000/svg">
<g clip-path="url(#clip0_25684_61611)">
<path d="M0 20C0 8.9543 8.9543 0 20 0C31.0457 0 40 8.9543 40 20C40 31.0457 31.0457 40 20 40C8.9543 40 0 31.0457 0 20Z" fill="white"/>
<path d="M11.3029 23.9576C11.3029 25.6922 9.88601 27.1091 8.15147 27.1091C6.41694 27.1091 5 25.6922 5 23.9576C5 22.2231 6.41694 20.8062 8.15147 20.8062H11.3029V23.9576Z" fill="#E01E5A"/>
<path d="M12.8906 23.9576C12.8906 22.2231 14.3076 20.8062 16.0421 20.8062C17.7766 20.8062 19.1936 22.2231 19.1936 23.9576V31.8485C19.1936 33.5831 17.7766 35 16.0421 35C14.3076 35 12.8906 33.5831 12.8906 31.8485V23.9576Z" fill="#E01E5A"/>
<path d="M16.0421 11.3029C14.3076 11.3029 12.8906 9.88601 12.8906 8.15147C12.8906 6.41694 14.3076 5 16.0421 5C17.7766 5 19.1936 6.41694 19.1936 8.15147V11.3029H16.0421Z" fill="#36C5F0"/>
<path d="M16.0424 12.8909C17.7769 12.8909 19.1939 14.3078 19.1939 16.0423C19.1939 17.7769 17.7769 19.1938 16.0424 19.1938H8.15147C6.41694 19.1938 5 17.7769 5 16.0423C5 14.3078 6.41694 12.8909 8.15147 12.8909H16.0424Z" fill="#36C5F0"/>
<path d="M28.6973 16.0423C28.6973 14.3078 30.1142 12.8909 31.8487 12.8909C33.5833 12.8909 35.0002 14.3078 35.0002 16.0423C35.0002 17.7769 33.5833 19.1938 31.8487 19.1938H28.6973V16.0423Z" fill="#2EB67D"/>
<path d="M27.1096 16.0424C27.1096 17.7769 25.6926 19.1938 23.9581 19.1938C22.2236 19.1938 20.8066 17.7769 20.8066 16.0424V8.15147C20.8066 6.41694 22.2236 5 23.9581 5C25.6926 5 27.1096 6.41694 27.1096 8.15147V16.0424Z" fill="#2EB67D"/>
<path d="M23.9581 28.6973C25.6926 28.6973 27.1096 30.1142 27.1096 31.8487C27.1096 33.5833 25.6926 35.0002 23.9581 35.0002C22.2236 35.0002 20.8066 33.5833 20.8066 31.8487V28.6973H23.9581Z" fill="#ECB22E"/>
<path d="M23.9581 27.1091C22.2236 27.1091 20.8066 25.6922 20.8066 23.9576C20.8066 22.2231 22.2236 20.8062 23.9581 20.8062H31.849C33.5835 20.8062 35.0005 22.2231 35.0005 23.9576C35.0005 25.6922 33.5835 27.1091 31.849 27.1091H23.9581Z" fill="#ECB22E"/>
</g>
<path d="M64.4545 19.5227L60.0227 19.7955C59.947 19.4167 59.7841 19.0758 59.5341 18.7727C59.2841 18.4621 58.9545 18.2159 58.5455 18.0341C58.1439 17.8447 57.6629 17.75 57.1023 17.75C56.3523 17.75 55.7197 17.9091 55.2045 18.2273C54.6894 18.5379 54.4318 18.9545 54.4318 19.4773C54.4318 19.8939 54.5985 20.2462 54.9318 20.5341C55.2652 20.822 55.8371 21.053 56.6477 21.2273L59.8068 21.8636C61.5038 22.2121 62.7689 22.7727 63.6023 23.5455C64.4356 24.3182 64.8523 25.3333 64.8523 26.5909C64.8523 27.7348 64.5152 28.7386 63.8409 29.6023C63.1742 30.4659 62.2576 31.1402 61.0909 31.625C59.9318 32.1023 58.5947 32.3409 57.0795 32.3409C54.7689 32.3409 52.928 31.8598 51.5568 30.8977C50.1932 29.928 49.3939 28.6098 49.1591 26.9432L53.9205 26.6932C54.0644 27.3977 54.4129 27.9356 54.9659 28.3068C55.5189 28.6705 56.2273 28.8523 57.0909 28.8523C57.9394 28.8523 58.6212 28.6894 59.1364 28.3636C59.6591 28.0303 59.9242 27.6023 59.9318 27.0795C59.9242 26.6402 59.7386 26.2803 59.375 26C59.0114 25.7121 58.4508 25.4924 57.6932 25.3409L54.6705 24.7386C52.9659 24.3977 51.697 23.8068 50.8636 22.9659C50.0379 22.125 49.625 21.053 49.625 19.75C49.625 18.6288 49.928 17.6629 50.5341 16.8523C51.1477 16.0417 52.0076 15.4167 53.1136 14.9773C54.2273 14.5379 55.5303 14.3182 57.0227 14.3182C59.2273 14.3182 60.9621 14.7841 62.2273 15.7159C63.5 16.6477 64.2424 17.9167 64.4545 19.5227ZM72.7415 8.72727V32H67.9006V8.72727H72.7415ZM81.5966 32.3295C80.483 32.3295 79.4905 32.1364 78.6193 31.75C77.7481 31.3561 77.0587 30.7765 76.5511 30.0114C76.0511 29.2386 75.8011 28.2765 75.8011 27.125C75.8011 26.1553 75.9792 25.3409 76.3352 24.6818C76.6913 24.0227 77.1761 23.4924 77.7898 23.0909C78.4034 22.6894 79.1004 22.3864 79.8807 22.1818C80.6686 21.9773 81.4943 21.8333 82.358 21.75C83.3731 21.6439 84.1913 21.5455 84.8125 21.4545C85.4337 21.3561 85.8845 21.2121 86.1648 21.0227C86.4451 20.8333 86.5852 20.553 86.5852 20.1818V20.1136C86.5852 19.3939 86.358 18.8371 85.9034 18.4432C85.4564 18.0492 84.8201 17.8523 83.9943 17.8523C83.1231 17.8523 82.4299 18.0455 81.9148 18.4318C81.3996 18.8106 81.0587 19.2879 80.892 19.8636L76.4148 19.5C76.642 18.4394 77.089 17.5227 77.7557 16.75C78.4223 15.9697 79.2822 15.3712 80.3352 14.9545C81.3958 14.5303 82.6231 14.3182 84.017 14.3182C84.9867 14.3182 85.9148 14.4318 86.8011 14.6591C87.6951 14.8864 88.4867 15.2386 89.1761 15.7159C89.8731 16.1932 90.4223 16.8068 90.8239 17.5568C91.2254 18.2992 91.4261 19.1894 91.4261 20.2273V32H86.8352V29.5795H86.6989C86.4186 30.125 86.0436 30.6061 85.5739 31.0227C85.1042 31.4318 84.5398 31.7538 83.8807 31.9886C83.2216 32.2159 82.4602 32.3295 81.5966 32.3295ZM82.983 28.9886C83.6951 28.9886 84.3239 28.8485 84.8693 28.5682C85.4148 28.2803 85.8428 27.8939 86.1534 27.4091C86.464 26.9242 86.6193 26.375 86.6193 25.7614V23.9091C86.4678 24.0076 86.2595 24.0985 85.9943 24.1818C85.7367 24.2576 85.4451 24.3295 85.1193 24.3977C84.7936 24.4583 84.4678 24.5152 84.142 24.5682C83.8163 24.6136 83.5208 24.6553 83.2557 24.6932C82.6875 24.7765 82.1913 24.9091 81.767 25.0909C81.3428 25.2727 81.0133 25.5189 80.7784 25.8295C80.5436 26.1326 80.4261 26.5114 80.4261 26.9659C80.4261 27.625 80.6648 28.1288 81.142 28.4773C81.6269 28.8182 82.2405 28.9886 82.983 28.9886ZM103.068 32.3409C101.28 32.3409 99.7424 31.9621 98.4545 31.2045C97.1742 30.4394 96.1894 29.3788 95.5 28.0227C94.8182 26.6667 94.4773 25.1061 94.4773 23.3409C94.4773 21.553 94.822 19.9848 95.5114 18.6364C96.2083 17.2803 97.197 16.2235 98.4773 15.4659C99.7576 14.7008 101.28 14.3182 103.045 14.3182C104.568 14.3182 105.902 14.5947 107.045 15.1477C108.189 15.7008 109.095 16.4773 109.761 17.4773C110.428 18.4773 110.795 19.6515 110.864 21H106.295C106.167 20.1288 105.826 19.428 105.273 18.8977C104.727 18.3598 104.011 18.0909 103.125 18.0909C102.375 18.0909 101.72 18.2955 101.159 18.7045C100.606 19.1061 100.174 19.6932 99.8636 20.4659C99.553 21.2386 99.3977 22.1742 99.3977 23.2727C99.3977 24.3864 99.5492 25.3333 99.8523 26.1136C100.163 26.8939 100.598 27.4886 101.159 27.8977C101.72 28.3068 102.375 28.5114 103.125 28.5114C103.678 28.5114 104.174 28.3977 104.614 28.1705C105.061 27.9432 105.428 27.6136 105.716 27.1818C106.011 26.7424 106.205 26.2159 106.295 25.6023H110.864C110.788 26.9356 110.424 28.1098 109.773 29.125C109.129 30.1326 108.239 30.9205 107.102 31.4886C105.966 32.0568 104.621 32.3409 103.068 32.3409ZM118.349 26.9773L118.361 21.1705H119.065L124.656 14.5455H130.213L122.702 23.3182H121.554L118.349 26.9773ZM113.963 32V8.72727H118.804V32H113.963ZM124.872 32L119.736 24.3977L122.963 20.9773L130.543 32H124.872Z" fill="black"/>
<defs>
<clipPath id="clip0_25684_61611">
<rect width="40" height="40" fill="white"/>
</clipPath>
</defs>
</svg>
