<svg width="40" height="40" viewBox="0 0 40 40" fill="none" xmlns="http://www.w3.org/2000/svg">
<rect width="40" height="40" rx="20" fill="url(#paint0_linear_25684_61627)"/>
<path d="M20.6704 8.17121C20.6704 7.80051 20.3693 7.5 19.9978 7.5C19.6264 7.5 19.3253 7.80051 19.3253 8.17121V12.0362C19.3253 12.2323 19.0878 12.3305 18.9489 12.1919L16.9697 10.2164C16.707 9.95427 16.2812 9.95427 16.0186 10.2164C15.756 10.4785 15.756 10.9035 16.0186 11.1656L18.9379 14.0793C19.186 14.3269 19.3253 14.6628 19.3253 15.013V18.4525C19.3253 18.6219 19.1416 18.7278 18.9946 18.6431L16.0005 16.9178C15.6967 16.7427 15.475 16.4543 15.3841 16.1161L14.3156 12.136C14.2195 11.7779 13.8507 11.5654 13.492 11.6613C13.1332 11.7573 12.9203 12.1253 13.0164 12.4834L13.7409 15.1819C13.7917 15.3713 13.5878 15.5275 13.4177 15.4295L10.0735 13.5025C9.75188 13.3171 9.34057 13.4271 9.15487 13.7481C8.96916 14.0692 9.07937 14.4797 9.40102 14.665L12.7489 16.5942C12.919 16.6922 12.8854 16.9466 12.6957 16.9974L9.98609 17.722C9.62733 17.8179 9.41442 18.186 9.51055 18.5441C9.60668 18.9021 9.97544 19.1146 10.3342 19.0187L14.3279 17.9506C14.6668 17.86 15.0279 17.9075 15.3318 18.0826L18.3242 19.8069C18.4712 19.8916 18.4712 20.1034 18.3242 20.1881L15.3259 21.9159C15.022 22.091 14.6609 22.1384 14.322 22.0478L10.3342 20.9813C9.97544 20.8854 9.60668 21.0979 9.51055 21.4559C9.41442 21.814 9.62733 22.1821 9.98609 22.278L12.6898 23.0011C12.8796 23.0518 12.9131 23.3062 12.743 23.4042L9.39887 25.3312C9.07721 25.5166 8.967 25.9271 9.15271 26.2481C9.33842 26.5692 9.74972 26.6792 10.0714 26.4938L13.4192 24.5647C13.5894 24.4666 13.7933 24.6228 13.7425 24.8122L13.0164 27.5166C12.9203 27.8747 13.1332 28.2427 13.492 28.3387C13.8507 28.4346 14.2195 28.2221 14.3156 27.864L15.3857 23.8781C15.4765 23.5398 15.6983 23.2514 16.0021 23.0763L18.9946 21.3519C19.1416 21.2672 19.3253 21.3731 19.3253 21.5425V24.998C19.3253 25.3482 19.186 25.6841 18.9379 25.9317L16.0186 28.8454C15.756 29.1075 15.756 29.5325 16.0186 29.7946C16.2812 30.0567 16.707 30.0567 16.9697 29.7946L18.9489 27.8192C19.0878 27.6805 19.3253 27.7787 19.3253 27.9748V31.8288C19.3253 32.1995 19.6264 32.5 19.9978 32.5C20.3693 32.5 20.6704 32.1995 20.6704 31.8288V27.9705C20.6704 27.7744 20.9079 27.6762 21.0468 27.8149L23.0303 29.7946C23.293 30.0567 23.7188 30.0567 23.9814 29.7946C24.244 29.5325 24.244 29.1075 23.9814 28.8454L21.0578 25.9274C20.8097 25.6798 20.6704 25.3439 20.6704 24.9938V21.54C20.6704 21.3706 20.8541 21.2647 21.0011 21.3494L23.9883 23.0708C24.2922 23.2459 24.5139 23.5343 24.6048 23.8726L25.6749 27.8585C25.771 28.2166 26.1397 28.4291 26.4985 28.3332C26.8573 28.2372 27.0702 27.8692 26.974 27.5111L26.248 24.8067C26.1972 24.6173 26.4011 24.4611 26.5712 24.5592L29.9286 26.4938C30.2503 26.6792 30.6616 26.5692 30.8473 26.2481C31.033 25.9271 30.9228 25.5166 30.6011 25.3312L27.2475 23.3987C27.0773 23.3007 27.1109 23.0463 27.3006 22.9956L30.0044 22.2725C30.3631 22.1766 30.576 21.8085 30.4799 21.4504C30.3838 21.0924 30.015 20.8799 29.6563 20.9758L25.6685 22.0423C25.3296 22.1329 24.9684 22.0855 24.6646 21.9104L21.6758 20.1881C21.5288 20.1034 21.5288 19.8916 21.6758 19.8069L24.6587 18.0881C24.9626 17.913 25.3237 17.8655 25.6626 17.9561L29.6563 19.0242C30.015 19.1201 30.3838 18.9076 30.4799 18.5496C30.576 18.1915 30.3631 17.8234 30.0044 17.7275L27.2948 17.0029C27.105 16.9521 27.0715 16.6977 27.2416 16.5997L30.599 14.665C30.9206 14.4797 31.0308 14.0692 30.8451 13.7481C30.6594 13.4271 30.2481 13.3171 29.9265 13.5025L26.5728 15.435C26.4027 15.533 26.1987 15.3768 26.2496 15.1874L26.974 12.4889C27.0702 12.1308 26.8573 11.7628 26.4985 11.6668C26.1397 11.5709 25.771 11.7834 25.6749 12.1415L24.6063 16.1216C24.5155 16.4598 24.2938 16.7482 23.9899 16.9233L21.0011 18.6456C20.8541 18.7303 20.6704 18.6244 20.6704 18.455V15.0173C20.6704 14.6671 20.8097 14.3312 21.0578 14.0836L23.9814 11.1656C24.244 10.9035 24.244 10.4785 23.9814 10.2164C23.7188 9.95427 23.293 9.95427 23.0303 10.2164L21.0468 12.1961C20.9079 12.3348 20.6704 12.2366 20.6704 12.0405V8.17121Z" fill="#F7F9FB"/>
<defs>
<linearGradient id="paint0_linear_25684_61627" x1="20" y1="0" x2="20" y2="40" gradientUnits="userSpaceOnUse">
<stop stop-color="#5162FF"/>
<stop offset="1" stop-color="#909AF5"/>
</linearGradient>
</defs>
</svg>
