<svg width="48" height="48" viewBox="0 0 48 48" fill="none" xmlns="http://www.w3.org/2000/svg">
<path fill-rule="evenodd" clip-rule="evenodd" d="M24.5054 23.0739C24.489 24.3772 25.6577 25.1046 26.538 25.537C27.4425 25.9807 27.7463 26.2653 27.7429 26.662C27.736 27.2693 27.0213 27.5373 26.3524 27.5477C25.2171 27.5655 24.5442 27.248 24.0118 26.9968L23.9677 26.9761L23.5474 28.9589C24.0886 29.2104 25.0906 29.4296 26.1298 29.4392C28.5688 29.4392 30.1647 28.2255 30.1733 26.3436C30.179 24.9148 29.005 24.2934 28.0656 23.7962C27.4347 23.4623 26.9096 23.1844 26.9186 22.7555C26.9264 22.4318 27.2328 22.0864 27.9043 21.9985C28.2365 21.9541 29.154 21.9202 30.194 22.4031L30.6022 20.4846C30.043 20.2793 29.324 20.0826 28.429 20.0826C26.1332 20.0826 24.5184 21.3129 24.5054 23.0739ZM34.5249 20.248C34.0796 20.248 33.7042 20.5098 33.5367 20.9118L30.0525 29.2983H32.4898L32.9749 27.9471H35.9533L36.2347 29.2983H38.3829L36.5083 20.248H34.5249ZM35.5693 26.0912L34.8659 22.6928L33.6429 26.0912H35.5693ZM21.5503 20.248L19.629 29.2983H21.9516L23.8719 20.248H21.5503ZM15.6969 26.4079L18.1143 20.248H20.5534L16.7904 29.2983H14.3358L12.4836 22.0759C12.3714 21.6313 12.2739 21.4678 11.9321 21.2807C11.3737 20.9745 10.4519 20.6882 9.64062 20.5107L9.69586 20.248H13.6479C14.1511 20.248 14.6042 20.5855 14.719 21.1702L15.6969 26.4079Z" fill="url(#paint0_linear_167_10713)"/>
<defs>
<linearGradient id="paint0_linear_167_10713" x1="9.69072" y1="22.9605" x2="17.815" y2="11.5186" gradientUnits="userSpaceOnUse">
<stop stop-color="#222357"/>
<stop offset="1" stop-color="#254AA5"/>
</linearGradient>
</defs>
</svg>
