<svg width="267" height="267" viewBox="0 0 267 267" fill="none" xmlns="http://www.w3.org/2000/svg">
<g clip-path="url(#clip0_202_849)">
<path d="M251.547 20.0323H150.473C142.066 20.0323 135.252 26.8483 135.252 35.2552V92.427C135.252 100.836 142.066 107.65 150.473 107.65H186.427L180.615 131.104C179.859 134.16 183.375 136.462 185.873 134.545L220.883 107.652H251.547C259.954 107.652 266.77 100.836 266.77 92.429V35.2552C266.77 26.8483 259.954 20.0323 251.547 20.0323Z" fill="#88DBFD"/>
<path d="M185.111 112.963L180.615 131.104C179.859 134.16 183.375 136.462 185.873 134.545L220.883 107.652H192.027L185.111 112.963Z" fill="#5ABFE9"/>
<path d="M251.547 20.0323H222.69C231.097 20.0323 237.913 26.8483 237.913 35.2552V92.427C237.913 100.836 231.097 107.65 222.69 107.65H251.547C259.954 107.65 266.77 100.836 266.77 92.427V35.2552C266.77 26.8483 259.954 20.0323 251.547 20.0323Z" fill="#5ABFE9"/>
<path d="M178.224 63.6761L190.864 55.4668C191.112 55.2672 191.46 55.2183 191.809 55.2183C193.3 55.2183 195.192 56.8092 195.192 58.8503C195.192 59.6957 194.844 60.4413 194.296 60.7896L185.539 66.4628L194.296 72.1339C194.844 72.4822 195.192 73.2298 195.192 74.0752C195.192 76.1143 193.3 77.7073 191.809 77.7073C191.46 77.7073 191.112 77.6563 190.864 77.4588L178.224 69.2495C177.081 68.5019 176.682 67.3081 176.682 66.4628C176.682 65.6154 177.081 64.4216 178.224 63.6761Z" fill="#F2F2F2"/>
<path d="M223.157 44.4688C223.157 44.7682 223.106 45.1165 222.957 45.414L205.442 81.2905C205.094 82.036 204.149 82.5351 203.204 82.5351C201.511 82.5351 200.417 81.1417 200.417 79.8971C200.417 79.5997 200.517 79.2514 200.666 78.9519L218.131 43.0754C218.528 42.23 219.325 41.8328 220.221 41.8328C221.615 41.8328 223.157 42.8758 223.157 44.4688Z" fill="#F2F2F2"/>
<path d="M245.35 69.2495L232.713 77.4588C232.464 77.6563 232.116 77.7073 231.767 77.7073C230.274 77.7073 228.382 76.1163 228.382 74.0752C228.382 73.2298 228.73 72.4822 229.278 72.1339L238.035 66.4628L229.278 60.7896C228.73 60.4413 228.382 59.6957 228.382 58.8503C228.382 56.8092 230.274 55.2183 231.767 55.2183C232.116 55.2183 232.464 55.2672 232.713 55.4668L245.35 63.6761C246.495 64.4216 246.893 65.6154 246.893 66.4628C246.893 67.3081 246.495 68.5019 245.35 69.2495Z" fill="#F2F2F2"/>
<path d="M212.294 200.352C211.536 187.435 203.335 176.907 191.131 171.191C176.191 164.198 135.505 153.614 135.505 153.614C131.574 152.885 128.724 149.454 128.724 145.455V122.196H84.4915V145.455C84.4915 149.454 81.6396 152.883 77.7081 153.614C77.7081 153.614 37.0242 164.198 22.0844 171.191C9.87845 176.907 1.67729 187.435 0.919509 200.352L0.000800197 255.798C-0.0725335 261.962 4.90398 267 11.0701 267H202.143C208.309 267 213.286 261.962 213.213 255.798L212.294 200.352Z" fill="#FCC18B"/>
<path d="M212.292 200.352C211.534 187.435 203.333 176.907 191.129 171.191C176.189 164.198 135.503 153.614 135.503 153.614C131.572 152.885 128.722 149.454 128.722 145.455V122.196H99.8652V159.403C99.8652 163.402 102.715 166.83 106.647 167.561C106.647 167.561 147.333 178.146 162.272 185.139C174.476 190.855 182.677 201.383 183.435 214.3L184.307 267H202.141C208.308 267 213.284 261.962 213.211 255.798L212.292 200.352Z" fill="#EAAB65"/>
<path d="M60.7531 63.3217H54.9455C52.8432 63.3217 50.906 64.0326 49.3599 65.2263C46.6771 67.3 45.5017 70.7874 46.1067 74.1241L48.3882 86.6785C50.1564 95.9857 60.7674 91.7324 60.7674 91.7324L60.7531 63.3217Z" fill="#EAAB65"/>
<path d="M152.46 63.3217H158.265C160.369 63.3217 162.307 64.0326 163.851 65.2263C166.534 67.3 167.711 70.7874 167.104 74.1241L164.824 86.6785C163.054 95.9857 152.445 91.7324 152.445 91.7324L152.46 63.3217Z" fill="#FCC18B"/>
<path d="M138.789 15.6038C131.238 8.62282 120.625 2.53001 106.606 2.36093C92.5847 2.53001 81.9717 8.62282 74.4203 15.6038C64.7912 24.5098 59.5723 37.7322 59.5723 51.3805L59.5865 98.9639C59.5865 121.459 88.8263 144.757 106.606 144.757C124.385 144.757 153.625 121.459 153.625 98.9639L153.637 51.3805C153.637 37.7343 148.42 24.5098 138.789 15.6038Z" fill="#FCC18B"/>
<path d="M138.791 15.6038C131.24 8.62282 120.627 2.53001 106.608 2.36093C101.32 2.42408 96.5166 3.3326 92.1797 4.8115C99.3399 7.25392 105.231 11.2567 109.935 15.6038C119.566 24.5098 124.783 37.7343 124.783 51.3805L124.77 98.9639C124.77 115.985 108.03 133.463 92.1797 140.962C97.2764 143.374 102.281 144.757 106.608 144.757C124.387 144.757 153.627 121.459 153.627 98.9639L153.639 51.3805C153.639 37.7343 148.423 24.5098 138.791 15.6038Z" fill="#EAAB65"/>
<path d="M135.702 0H77.5133C62.541 0 50.4043 12.1367 50.4043 27.109V64.5154C50.4043 64.5154 57.8701 64.3463 62.6673 69.0946C63.6655 70.0826 65.3623 69.3615 65.3623 67.9559V38.6367C65.3623 32.0204 70.7279 26.6548 77.3463 26.6548H88.2343C91.0903 26.6548 93.8586 27.6427 96.0688 29.4496L97.1362 30.3215C99.8088 32.5072 103.156 33.7009 106.609 33.7009C110.061 33.7009 113.406 32.5072 116.079 30.3215L117.148 29.4496C119.358 27.6427 122.127 26.6548 124.983 26.6548H135.871C142.487 26.6548 147.853 32.0204 147.853 38.6367V67.9559C147.853 69.3615 149.552 70.0826 150.55 69.0946C155.347 64.3463 162.811 64.5154 162.811 64.5154V27.109C162.811 12.1367 150.674 0 135.702 0Z" fill="#426175"/>
<path d="M135.702 0H125.637C130.703 5.96244 133.879 14.9173 133.96 26.6548H135.871C142.487 26.6548 147.853 32.0204 147.853 38.6387V67.9559C147.853 69.3615 149.552 70.0846 150.55 69.0946C155.347 64.3483 162.811 64.5174 162.811 64.5174V27.109C162.811 12.1367 150.674 0 135.702 0Z" fill="#2C4456"/>
<path d="M191.131 171.194C182.437 167.124 165.026 161.837 151.987 158.13L149.168 159.197C121.745 169.584 91.4704 169.584 64.0476 159.197L61.2263 158.13C48.1872 161.837 30.7786 167.124 22.0844 171.194C9.87845 176.907 1.67729 187.435 0.919509 200.352L0.000800197 255.798C-0.0725335 261.962 4.90398 267 11.0701 267H202.143C208.309 267 213.286 261.962 213.213 255.798L212.294 200.352C211.536 187.435 203.335 176.907 191.131 171.194Z" fill="#33BCA5"/>
<path d="M174.443 253.105H36.7506C32.5625 253.105 29.0873 249.868 28.7878 245.69L23.1574 166.677C22.8274 162.057 26.486 158.128 31.1182 158.128H180.075C184.706 158.128 188.366 162.057 188.036 166.677L182.406 245.692C182.106 249.868 178.631 253.105 174.443 253.105Z" fill="#F2F2F2"/>
<path d="M180.076 158.13H151.007C155.639 158.13 159.298 162.059 158.968 166.679L152.808 253.105H174.443C178.631 253.105 182.106 249.868 182.406 245.69L188.036 166.677C188.366 162.059 184.708 158.13 180.076 158.13Z" fill="#CDD6DF"/>
<path d="M184.32 267H28.8975C25.0617 267 21.9512 263.889 21.9512 260.054C21.9512 256.216 25.0617 253.107 28.8975 253.107H184.32C188.156 253.107 191.267 256.216 191.267 260.054C191.267 263.889 188.156 267 184.32 267Z" fill="#CDD6DF"/>
<path d="M117.725 208.804C117.725 214.945 112.746 219.922 106.606 219.922C100.465 219.922 95.4883 214.945 95.4883 208.804C95.4883 202.664 100.465 197.687 106.606 197.687C112.746 197.687 117.725 202.664 117.725 208.804Z" fill="white"/>
</g>
<defs>
<clipPath id="clip0_202_849">
<rect width="267" height="267" fill="white"/>
</clipPath>
</defs>
</svg>
